<svg width="815" height="425" viewBox="0 0 815 425" fill="none" xmlns="http://www.w3.org/2000/svg">
<g opacity="0.2" clip-path="url(#clip0_401_27616)">
<path d="M296.334 84.182V333.13H248.216V62.9766L296.334 84.182Z" fill="#D2C3DD"/>
<path d="M249.139 306.135L218.604 261.877V89.735L248.204 62.9766C248.417 63.1897 248.582 68.6124 248.713 77.7055C248.713 78.9842 248.713 80.3458 248.772 81.7666C248.772 84.9871 248.843 88.5746 248.878 92.4226C248.878 94.0447 248.878 95.7142 248.878 97.4428C248.878 101.8 248.949 106.453 248.961 111.378C248.961 112.657 248.961 113.96 248.961 115.274C248.961 119.169 248.961 123.218 248.961 127.386C248.961 128.973 248.961 130.583 248.961 132.205C249.352 204.133 249.139 306.135 249.139 306.135Z" fill="#FCECF9"/>
<path d="M296.392 98.3429L248.784 81.7669L218.604 104.76V100.9L248.488 77.6229L248.724 77.7058L296.144 94.7436L296.392 98.3429Z" fill="#C1B2CE"/>
<path d="M296.144 107.223V110.775L249.376 97.1592L248.926 97.4789L218.604 118.815V114.268L248.784 92.4232L248.89 92.4587L296.144 107.223Z" fill="#C1B2CE"/>
<path d="M296.333 122.449V126.297L249.032 115.321L248.985 115.31L248.215 115.748L218.604 132.466V128.76L248.215 111.698L248.784 111.367L249.009 111.414V111.426L296.333 122.449Z" fill="#C1B2CE"/>
<path d="M296.333 136.918V140.529L249.281 132.182L249.103 132.253L248.215 132.608L218.604 144.554V141.002L248.215 127.825L249.092 127.434L249.281 127.351L296.333 136.918Z" fill="#C1B2CE"/>
<path d="M156.882 95.2882L175.388 143.418L223.506 150.818L156.882 95.2882Z" fill="#EED6E7"/>
<path d="M175.388 143.11V291.489H222.582L223.505 150.818L175.388 143.11Z" fill="#CBBADD"/>
<path d="M156.882 95.2882L121.398 154.678L175.388 143.11L156.882 95.2882Z" fill="#FCECF9"/>
<path d="M175.387 143.11V291.489L119.858 294.271L121.397 154.524L175.387 143.11Z" fill="#DECDE4"/>
<path d="M749.83 45.051L703.725 73.4907V423.943H749.427L749.83 45.051Z" fill="#FCECF9"/>
<path d="M828.849 423.943H749.426V44.6367L828.849 63.7702V423.943Z" fill="#D2C3DD"/>
<path d="M765.304 56.9028V324.487" stroke="white" stroke-width="1.184" stroke-miterlimit="10" stroke-linecap="round"/>
<path d="M770.928 58.2406V325.825" stroke="white" stroke-width="1.184" stroke-miterlimit="10" stroke-linecap="round"/>
<path d="M776.552 59.5668V327.151" stroke="white" stroke-width="1.184" stroke-miterlimit="10" stroke-linecap="round"/>
<path d="M782.176 60.9045V328.489" stroke="white" stroke-width="1.184" stroke-miterlimit="10" stroke-linecap="round"/>
<path d="M787.8 62.2311V329.815" stroke="white" stroke-width="1.184" stroke-miterlimit="10" stroke-linecap="round"/>
<path d="M793.424 63.5688V331.153" stroke="white" stroke-width="1.184" stroke-miterlimit="10" stroke-linecap="round"/>
<path d="M799.048 64.8949V332.479" stroke="white" stroke-width="1.184" stroke-miterlimit="10" stroke-linecap="round"/>
<path d="M804.672 66.2327V333.817" stroke="white" stroke-width="1.184" stroke-miterlimit="10" stroke-linecap="round"/>
<path d="M810.296 67.5588V335.143" stroke="white" stroke-width="1.184" stroke-miterlimit="10" stroke-linecap="round"/>
<path d="M615.327 111.568L622.94 132.762L671.058 140.162L646.904 118.874L615.327 111.568Z" fill="#EED6E7"/>
<path d="M622.94 132.454V280.833H670.134L671.058 140.162L622.94 132.454Z" fill="#CBBADD"/>
<path d="M614.735 111.177L580.6 119.264L568.95 144.021L622.94 132.454L614.735 111.177Z" fill="#FCECF9"/>
<path d="M622.94 132.454V280.833L567.41 283.616L568.949 143.868L622.94 132.454Z" fill="#DECDE4"/>
<path d="M28.8086 13.0829L-17.2964 41.5226V279.791L28.406 248.119L28.8086 13.0829Z" fill="#FCECF9"/>
<path d="M107.829 317.407H28.4062V12.6689L107.829 31.8024V317.407Z" fill="#D2C3DD"/>
<path d="M28.4062 12.6689L107 210.823L107.829 31.8024L28.4062 12.6689Z" fill="#C1B2CE"/>
<path d="M-18.208 66.3751L28.264 42.1031L107.888 59.8631" stroke="#AB9BBC" stroke-width="1.184" stroke-miterlimit="10"/>
<path d="M-18.3027 53.7535L28.264 28.0962L107.592 46.0575" stroke="#AB9BBC" stroke-width="1.184" stroke-miterlimit="10"/>
<path d="M-17.1187 77.2321L28.0628 56.9028L107.793 72.8868" stroke="#AB9BBC" stroke-width="1.184" stroke-miterlimit="10"/>
<path d="M-17.7109 92.0319L28.6545 73.2892L107.687 86.6092" stroke="#AB9BBC" stroke-width="1.184" stroke-miterlimit="10"/>
<path d="M-17.7109 107.626L28.6545 88.8711L107.687 102.191" stroke="#AB9BBC" stroke-width="1.184" stroke-miterlimit="10"/>
<path d="M-17.7109 123.207L28.6545 104.464L107.687 117.784" stroke="#AB9BBC" stroke-width="1.184" stroke-miterlimit="10"/>
<path d="M-17.7109 138.8L28.6545 120.057L107.687 133.377" stroke="#AB9BBC" stroke-width="1.184" stroke-miterlimit="10"/>
<path d="M-17.7109 154.394L28.6545 135.639L107.687 148.959" stroke="#AB9BBC" stroke-width="1.184" stroke-miterlimit="10"/>
<path d="M-17.7109 169.975L28.6545 151.232L107.687 164.552" stroke="#AB9BBC" stroke-width="1.184" stroke-miterlimit="10"/>
<path d="M-17.7109 185.568L28.6545 166.825L107.687 180.145" stroke="#AB9BBC" stroke-width="1.184" stroke-miterlimit="10"/>
<path d="M-17.7109 201.162L28.6545 182.407L107.687 195.727" stroke="#AB9BBC" stroke-width="1.184" stroke-miterlimit="10"/>
<path d="M-17.7109 216.743L28.6545 198L107.687 211.32" stroke="#AB9BBC" stroke-width="1.184" stroke-miterlimit="10"/>
<path d="M-17.7109 232.336L28.6545 213.593L107.687 226.913" stroke="#AB9BBC" stroke-width="1.184" stroke-miterlimit="10"/>
<path d="M-17.7109 247.93L28.6545 229.175L107.687 242.495" stroke="#AB9BBC" stroke-width="1.184" stroke-miterlimit="10"/>
<path d="M-17.7109 263.511L28.6545 244.769L107.687 258.089" stroke="#AB9BBC" stroke-width="1.184" stroke-miterlimit="10"/>
<path d="M-17.7109 279.104L28.6545 260.361L107.687 273.681" stroke="#AB9BBC" stroke-width="1.184" stroke-miterlimit="10"/>
<path d="M-17.7109 294.697L28.6545 275.943L107.687 289.263" stroke="#AB9BBC" stroke-width="1.184" stroke-miterlimit="10"/>
<path d="M377.876 82.8799L410.495 95.1935L410.104 189.12L377.248 184.846C377.248 184.846 377.852 82.8799 377.876 82.8799Z" fill="#CBBADD"/>
<path d="M376.656 177.079L377.876 82.8799L319.576 95.3711L318.64 185.604L306.99 192.175V390.519H394.535L393.327 181.033L376.656 177.079Z" fill="#FCECF9"/>
<path d="M393.35 182.94V421.279H412.471V182.111C412.471 182.111 391.976 182.94 393.35 182.94Z" fill="#CBBADD"/>
<path d="M328.408 98.9348H325.448V403.815H328.408V98.9348Z" fill="#CBBADD"/>
<path d="M336.554 97.5614H333.594V402.441H336.554V97.5614Z" fill="#CBBADD"/>
<path d="M344.984 95.8799H342.024V400.76H344.984V95.8799Z" fill="#CBBADD"/>
<path d="M353.272 94.3527H350.312V399.233H353.272V94.3527Z" fill="#CBBADD"/>
<path d="M361.56 93.1211H358.6V398.001H361.56V93.1211Z" fill="#CBBADD"/>
<path d="M370.298 91.1443H367.338V396.024H370.298V91.1443Z" fill="#CBBADD"/>
<path d="M310.175 194.46L390.983 187.321L391.231 191.287L310.044 198.403L310.175 194.46Z" fill="#FCECF9"/>
<path d="M310.151 257.141L391.124 252.512L391.266 256.466L309.89 261.072L310.151 257.141Z" fill="#FCECF9"/>
<path d="M322.464 166.032L375.768 159.52L376.182 163.463L322.488 169.975L322.464 166.032Z" fill="#FCECF9"/>
<path d="M125.257 156.761V162.385L130.479 161.391V155.577L125.257 156.761Z" fill="#C1B2CE"/>
<path d="M133.143 155.08V160.704L138.376 159.722V153.896L133.143 155.08Z" fill="#C1B2CE"/>
<path d="M141.04 153.399V159.023L146.273 158.04V152.215L141.04 153.399Z" fill="#C1B2CE"/>
<path d="M148.938 151.729V157.353L154.159 156.359V150.545L148.938 151.729Z" fill="#C1B2CE"/>
<path d="M156.823 150.048V155.672L162.056 154.689V148.864L156.823 150.048Z" fill="#C1B2CE"/>
<path d="M164.72 148.367V153.991L169.953 153.008V147.183L164.72 148.367Z" fill="#C1B2CE"/>
<path d="M125.648 166.671L125.458 172.295L130.715 171.478L130.905 165.665L125.648 166.671Z" fill="#C1B2CE"/>
<path d="M133.593 165.263L133.403 170.875L138.66 170.07L138.85 164.245L133.593 165.263Z" fill="#C1B2CE"/>
<path d="M141.537 163.842L141.348 169.466L146.605 168.649L146.794 162.835L141.537 163.842Z" fill="#C1B2CE"/>
<path d="M149.482 162.421L149.292 168.045L154.549 167.24L154.739 161.415L149.482 162.421Z" fill="#C1B2CE"/>
<path d="M157.427 161.012L157.237 166.636L162.494 165.819L162.684 159.994L157.427 161.012Z" fill="#C1B2CE"/>
<path d="M165.372 159.591L165.182 165.215L170.439 164.398L170.629 158.585L165.372 159.591Z" fill="#C1B2CE"/>
<path d="M125.648 177.73L125.458 183.342L130.715 182.537L130.905 176.712L125.648 177.73Z" fill="#C1B2CE"/>
<path d="M133.593 176.31L133.403 181.934L138.66 181.117L138.85 175.303L133.593 176.31Z" fill="#C1B2CE"/>
<path d="M141.537 174.888L141.348 180.512L146.605 179.696L146.794 173.882L141.537 174.888Z" fill="#C1B2CE"/>
<path d="M149.482 173.48L149.292 179.092L154.549 178.287L154.739 172.461L149.482 173.48Z" fill="#C1B2CE"/>
<path d="M157.427 172.059L157.237 177.683L162.494 176.866L162.684 171.053L157.427 172.059Z" fill="#C1B2CE"/>
<path d="M165.372 170.65L165.182 176.262L170.439 175.457L170.629 169.632L165.372 170.65Z" fill="#C1B2CE"/>
<path d="M125.612 187.746L125.269 193.359L130.55 192.696L130.905 186.882L125.612 187.746Z" fill="#C1B2CE"/>
<path d="M133.605 186.551L133.261 192.175L138.53 191.512L138.897 185.698L133.605 186.551Z" fill="#C1B2CE"/>
<path d="M141.584 185.367L141.241 190.979L146.521 190.316L146.877 184.502L141.584 185.367Z" fill="#C1B2CE"/>
<path d="M149.565 184.171L149.222 189.783L154.502 189.12L154.858 183.306L149.565 184.171Z" fill="#C1B2CE"/>
<path d="M157.545 182.987L157.201 188.599L162.482 187.936L162.837 182.123L157.545 182.987Z" fill="#C1B2CE"/>
<path d="M165.525 181.791L165.182 187.403L170.463 186.74L170.818 180.927L165.525 181.791Z" fill="#C1B2CE"/>
<path d="M125.612 198.214L125.269 203.826L130.55 203.151L130.905 197.349L125.612 198.214Z" fill="#C1B2CE"/>
<path d="M133.605 197.017L133.261 202.63L138.53 201.967L138.897 196.153L133.605 197.017Z" fill="#C1B2CE"/>
<path d="M141.584 195.822L141.241 201.434L146.521 200.771L146.877 194.958L141.584 195.822Z" fill="#C1B2CE"/>
<path d="M149.565 194.638L149.222 200.25L154.502 199.587L154.858 193.774L149.565 194.638Z" fill="#C1B2CE"/>
<path d="M157.545 193.442L157.201 199.054L162.482 198.391L162.837 192.577L157.545 193.442Z" fill="#C1B2CE"/>
<path d="M165.525 192.246L165.182 197.87L170.463 197.195L170.818 191.393L165.525 192.246Z" fill="#C1B2CE"/>
<path d="M125.612 207.484L125.269 213.096L130.55 212.433L130.905 206.619L125.612 207.484Z" fill="#C1B2CE"/>
<path d="M133.605 206.288L133.261 211.901L138.53 211.238L138.897 205.424L133.605 206.288Z" fill="#C1B2CE"/>
<path d="M141.584 205.104L141.241 210.716L146.521 210.053L146.877 204.24L141.584 205.104Z" fill="#C1B2CE"/>
<path d="M149.565 203.909L149.222 209.521L154.502 208.858L154.858 203.044L149.565 203.909Z" fill="#C1B2CE"/>
<path d="M157.545 202.713L157.201 208.325L162.482 207.662L162.837 201.86L157.545 202.713Z" fill="#C1B2CE"/>
<path d="M165.525 201.529L165.182 207.141L170.463 206.478L170.818 200.664L165.525 201.529Z" fill="#C1B2CE"/>
<path d="M362.531 424.061H237.607V287.12L265.976 240.589L362.531 424.061Z" fill="#7C79B1"/>
<path d="M391.219 424.854H266.295V239.665L391.219 258.976V424.854Z" fill="url(#paint0_linear_401_27616)"/>
<path d="M343.504 337.096L324.264 335.723V359.616L343.504 360.279V337.096Z" fill="#313160"/>
<path d="M324.264 414.471L343.504 414.246V392.875L324.264 392.922V414.471Z" fill="#313160"/>
<path d="M363.336 287.392L345.872 285.202V309.45L363.336 311.084V287.392Z" fill="#313160"/>
<path d="M343.504 362.647L324.264 361.984V390.554L343.504 390.506V362.647Z" fill="#313160"/>
<path d="M343.504 311.605L324.264 309.805V333.343L343.504 334.717V311.605Z" fill="#313160"/>
<path d="M321.896 361.901L302.064 361.226V390.601L321.896 390.554V361.901Z" fill="#313160"/>
<path d="M302.064 414.731L321.896 414.494V392.922L302.064 392.969V414.731Z" fill="#313160"/>
<path d="M363.336 313.452L345.872 311.818V334.894L363.336 336.137V313.452Z" fill="#313160"/>
<path d="M343.504 263.499L324.264 260.598V280.122L343.504 282.526V263.499Z" fill="#313160"/>
<path d="M363.336 338.517L345.872 337.262V360.362L363.336 360.954V338.517Z" fill="#313160"/>
<path d="M299.696 279.424L279.474 276.902V303.234L299.696 305.129V279.424Z" fill="#313160"/>
<path d="M299.696 331.591V307.497L279.474 305.614V330.135L299.696 331.591Z" fill="#313160"/>
<path d="M299.696 390.613V361.143L279.474 360.457V390.661L299.696 390.613Z" fill="#313160"/>
<path d="M299.696 358.775V333.959L279.474 332.514V358.089L299.696 358.775Z" fill="#313160"/>
<path d="M345.872 414.222L363.336 414.021V392.827L345.872 392.863V414.222Z" fill="#313160"/>
<path d="M363.336 363.322L345.872 362.73V390.495L363.336 390.459V363.322Z" fill="#313160"/>
<path d="M299.696 414.755V392.981L279.474 393.029V414.992L299.696 414.755Z" fill="#313160"/>
<path d="M343.504 284.906L324.264 282.502V307.425L343.504 309.225V284.906Z" fill="#313160"/>
<path d="M378.929 392.78L365.704 392.816V413.986L378.929 413.832V392.78Z" fill="#313160"/>
<path d="M365.704 311.297L378.929 312.54V289.346L365.704 287.688V311.297Z" fill="#313160"/>
<path d="M365.704 285.296L378.929 286.954V268.839L365.704 266.85V285.296Z" fill="#313160"/>
<path d="M365.704 313.677V336.304L378.929 337.251V314.92L365.704 313.677Z" fill="#313160"/>
<path d="M299.696 277.044V256.892L279.474 253.849V274.51L299.696 277.044Z" fill="#313160"/>
<path d="M365.704 416.353V423.943H378.929V416.199L365.704 416.353Z" fill="#313160"/>
<path d="M299.696 417.123L279.474 417.359V423.942H299.696V417.123Z" fill="#313160"/>
<path d="M365.704 390.448L378.929 390.412V363.855L365.704 363.405V390.448Z" fill="#313160"/>
<path d="M365.704 361.037L378.929 361.487V339.63L365.704 338.683V361.037Z" fill="#313160"/>
<path d="M321.896 282.206L302.064 279.72V305.342L321.896 307.2V282.206Z" fill="#313160"/>
<path d="M321.896 260.243L302.064 257.248V277.34L321.896 279.815V260.243Z" fill="#313160"/>
<path d="M321.896 423.943V416.863L302.064 417.099V423.943H321.896Z" fill="#313160"/>
<path d="M321.896 309.58L302.064 307.721V331.756L321.896 333.177V309.58Z" fill="#313160"/>
<path d="M345.872 263.854V282.822L363.336 285V266.495L345.872 263.854Z" fill="#313160"/>
<path d="M321.896 335.546L302.064 334.125V358.858L321.896 359.533V335.546Z" fill="#313160"/>
<path d="M363.336 416.389L345.872 416.59V423.943H363.336V416.389Z" fill="#313160"/>
<path d="M343.504 416.614L324.264 416.839V423.943H343.504V416.614Z" fill="#313160"/>
<path d="M237.607 287.12L266.248 404.407L266.295 424.855H237.607V287.12Z" fill="url(#paint1_linear_401_27616)"/>
<path d="M86.1377 235.107V255.744L141.194 241.027L145.847 206.217L91.3828 227.423C89.84 228.032 88.5154 229.089 87.5803 230.459C86.6453 231.829 86.1427 233.448 86.1377 235.107Z" fill="#FBEEFF"/>
<path d="M148.191 206.324L216.863 218.519C218.498 218.815 219.978 219.675 221.044 220.949C222.11 222.223 222.697 223.831 222.7 225.493V251.541L141.004 241.145V212.232C141.003 211.342 141.199 210.463 141.579 209.658C141.959 208.853 142.512 208.142 143.2 207.577C143.887 207.012 144.691 206.606 145.555 206.389C146.418 206.173 147.318 206.15 148.191 206.324Z" fill="#585899"/>
<path d="M129.686 217.252V229.127L134.303 228.37V215.464L129.686 217.252Z" fill="#47477A"/>
<path d="M120.711 220.307V232.182L125.329 231.436V218.519L120.711 220.307Z" fill="#47477A"/>
<path d="M112.518 223.077V234.953L117.135 234.195V221.29L112.518 223.077Z" fill="#47477A"/>
<path d="M104.431 226.084V237.96L109.049 237.202V224.297L104.431 226.084Z" fill="#47477A"/>
<path d="M96.7822 228.843V240.719L101.4 239.961V227.056L96.7822 228.843Z" fill="#47477A"/>
<path d="M89.5361 231.614V243.478L94.1537 242.732V229.814L89.5361 231.614Z" fill="#47477A"/>
<path d="M127.223 226.96L70.6516 242.885C68.7293 243.459 67.0434 244.637 65.8446 246.246C64.6457 247.854 63.9979 249.807 63.9976 251.813V424.452H123.79L127.223 226.96Z" fill="url(#paint2_linear_401_27616)"/>
<path d="M240.792 249.125V423.943H123.789L123.99 230.88C123.989 230.319 124.108 229.764 124.338 229.253C124.568 228.741 124.904 228.284 125.324 227.913C125.743 227.541 126.238 227.263 126.773 227.097C127.309 226.93 127.874 226.88 128.43 226.949L232.504 239.831C234.783 240.097 236.886 241.191 238.413 242.904C239.941 244.617 240.787 246.83 240.792 249.125Z" fill="url(#paint3_linear_401_27616)"/>
<path d="M141.537 244.366V423.943H137.985V244.366C137.985 243.895 138.172 243.443 138.506 243.11C138.839 242.777 139.29 242.59 139.761 242.59C140.232 242.59 140.684 242.777 141.017 243.11C141.35 243.443 141.537 243.895 141.537 244.366Z" fill="#313160"/>
<path d="M153.673 245.55V423.943H150.121V245.55C150.121 245.079 150.308 244.627 150.641 244.294C150.974 243.961 151.426 243.774 151.897 243.774C152.368 243.774 152.82 243.961 153.153 244.294C153.486 244.627 153.673 245.079 153.673 245.55Z" fill="#313160"/>
<path d="M165.513 246.734V423.943H161.961V246.734C161.961 246.263 162.148 245.811 162.481 245.478C162.814 245.145 163.266 244.958 163.737 244.958C164.208 244.958 164.66 245.145 164.993 245.478C165.326 245.811 165.513 246.263 165.513 246.734Z" fill="#313160"/>
<path d="M177.353 248.214V423.943H173.801V248.214C173.801 247.743 173.988 247.291 174.321 246.958C174.655 246.625 175.106 246.438 175.577 246.438C176.048 246.438 176.5 246.625 176.833 246.958C177.166 247.291 177.353 247.743 177.353 248.214Z" fill="#313160"/>
<path d="M189.489 249.398V423.943H185.937V249.398C185.937 248.927 186.124 248.475 186.457 248.142C186.79 247.809 187.242 247.622 187.713 247.622C188.184 247.622 188.636 247.809 188.969 248.142C189.302 248.475 189.489 248.927 189.489 249.398Z" fill="#313160"/>
<path d="M202.608 251.47V423.943H199.056V251.47C199.056 250.999 199.243 250.547 199.576 250.214C199.909 249.881 200.361 249.694 200.832 249.694C201.303 249.694 201.754 249.881 202.087 250.214C202.421 250.547 202.608 250.999 202.608 251.47Z" fill="#313160"/>
<path d="M215.633 253.447V423.943H212.081V253.447C212.081 252.976 212.268 252.524 212.601 252.191C212.934 251.858 213.386 251.671 213.857 251.671C214.328 251.671 214.779 251.858 215.112 252.191C215.445 252.524 215.633 252.976 215.633 253.447Z" fill="#313160"/>
<path d="M228.656 254.24V423.943H225.104V254.24C225.104 253.769 225.291 253.317 225.624 252.984C225.957 252.651 226.409 252.464 226.88 252.464C227.351 252.464 227.803 252.651 228.136 252.984C228.469 253.317 228.656 253.769 228.656 254.24Z" fill="#313160"/>
<path d="M99.1501 253.21V423.943H-41V251.671L-6.28512 243.561L99.1501 253.21Z" fill="url(#paint4_linear_401_27616)"/>
<path d="M99.1501 253.98V423.943H-7.76514V244.887L-6.29698 244.377L99.1501 253.98Z" fill="url(#paint5_linear_401_27616)"/>
<g opacity="0.39">
<path d="M15.8321 260.445V274.676L5.76807 273.919V259.58L15.8321 260.445Z" fill="url(#paint6_linear_401_27616)"/>
<path d="M15.8321 283.805V299.138L5.76807 298.617V283.202L15.8321 283.805Z" fill="url(#paint7_linear_401_27616)"/>
<path d="M15.8321 308.243V323.718L5.76807 323.481V307.876L15.8321 308.243Z" fill="url(#paint8_linear_401_27616)"/>
<path d="M15.8321 332.823V346.605L5.76807 346.368V332.728L15.8321 332.823Z" fill="url(#paint9_linear_401_27616)"/>
<path d="M15.8321 355.709V370.533L5.76807 370.486V355.615L15.8321 355.709Z" fill="url(#paint10_linear_401_27616)"/>
<path d="M15.8321 379.638V395.29L5.76807 395.693V379.744L15.8321 379.638Z" fill="url(#paint11_linear_401_27616)"/>
<path d="M15.8321 404.407V418.331L5.76807 418.745V404.964L15.8321 404.407Z" fill="url(#paint12_linear_401_27616)"/>
<path d="M32.4078 261.877V275.92L22.3438 275.162V261.013L32.4078 261.877Z" fill="url(#paint13_linear_401_27616)"/>
<path d="M32.4078 284.799V299.99L22.3438 299.469V284.196L32.4078 284.799Z" fill="url(#paint14_linear_401_27616)"/>
<path d="M32.4078 308.847V324.12L22.3438 323.871V308.479L32.4078 308.847Z" fill="url(#paint15_linear_401_27616)"/>
<path d="M32.4078 332.965V347.007L22.3438 346.77V332.882L32.4078 332.965Z" fill="url(#paint16_linear_401_27616)"/>
<path d="M32.4078 355.851V370.616L22.3438 370.569V355.769L32.4078 355.851Z" fill="url(#paint17_linear_401_27616)"/>
<path d="M32.4078 379.46V394.616L22.3438 395.018V379.567L32.4078 379.46Z" fill="url(#paint18_linear_401_27616)"/>
<path d="M32.4078 403.484V417.668L22.3438 418.071V404.04L32.4078 403.484Z" fill="url(#paint19_linear_401_27616)"/>
<path d="M49.7774 263.381V277.234L39.7134 276.476V262.505L49.7774 263.381Z" fill="url(#paint20_linear_401_27616)"/>
<path d="M49.7774 285.83V300.89L39.7134 300.369V285.226L49.7774 285.83Z" fill="url(#paint21_linear_401_27616)"/>
<path d="M49.7774 309.474V324.535L39.7134 324.298V309.107L49.7774 309.474Z" fill="url(#paint22_linear_401_27616)"/>
<path d="M49.7774 333.119V347.433L39.7134 347.184V333.036L49.7774 333.119Z" fill="url(#paint23_linear_401_27616)"/>
<path d="M49.7774 356.005V370.699L39.7134 370.652V355.923L49.7774 356.005Z" fill="url(#paint24_linear_401_27616)"/>
<path d="M49.7774 379.271V393.917L39.7134 394.319V379.377L49.7774 379.271Z" fill="url(#paint25_linear_401_27616)"/>
<path d="M49.7774 402.513V416.958L39.7134 417.373V403.07L49.7774 402.513Z" fill="url(#paint26_linear_401_27616)"/>
<path d="M67.5376 264.908V278.572L57.4736 277.814V264.044L67.5376 264.908Z" fill="url(#paint27_linear_401_27616)"/>
<path d="M67.5376 286.895V301.814L57.4736 301.293V286.292L67.5376 286.895Z" fill="url(#paint28_linear_401_27616)"/>
<path d="M67.5376 310.125V324.961L57.4736 324.724V309.758L67.5376 310.125Z" fill="url(#paint29_linear_401_27616)"/>
<path d="M67.5376 333.284V347.859L57.4736 347.611V333.189L67.5376 333.284Z" fill="url(#paint30_linear_401_27616)"/>
<path d="M67.5376 356.171V370.782L57.4736 370.734V356.076L67.5376 356.171Z" fill="url(#paint31_linear_401_27616)"/>
<path d="M67.5376 379.082V393.196L57.4736 393.598V379.189L67.5376 379.082Z" fill="url(#paint32_linear_401_27616)"/>
<path d="M67.5376 401.518V416.235L57.4736 416.65V402.086L67.5376 401.518Z" fill="url(#paint33_linear_401_27616)"/>
<path d="M85.688 266.483V279.933L75.624 279.176V265.607L85.688 266.483Z" fill="url(#paint34_linear_401_27616)"/>
<path d="M85.688 287.985V302.749L75.624 302.228V287.381L85.688 287.985Z" fill="url(#paint35_linear_401_27616)"/>
<path d="M85.688 310.777V325.399L75.624 325.162V310.41L85.688 310.777Z" fill="url(#paint36_linear_401_27616)"/>
<path d="M85.688 333.438V348.298L75.624 348.061V333.355L85.688 333.438Z" fill="url(#paint37_linear_401_27616)"/>
<path d="M85.688 356.325V370.865L75.624 370.817V356.242L85.688 356.325Z" fill="url(#paint38_linear_401_27616)"/>
<path d="M85.688 378.892V392.461L75.624 392.875V378.999L85.688 378.892Z" fill="url(#paint39_linear_401_27616)"/>
<path d="M85.688 400.512V415.501L75.624 415.916V401.068L85.688 400.512Z" fill="url(#paint40_linear_401_27616)"/>
</g>
<path d="M434.376 31.6481L438.745 19.7607L493.055 -0.000244141L490.616 14.0657L434.376 31.6481Z" fill="#FBEEFF"/>
<path d="M493.055 -0.000244141L550.207 17.2388L556.92 30.4641L490.616 14.0657L493.055 -0.000244141Z" fill="#7C79B1"/>
<path d="M492.913 12.6454L492.842 60.1356V424.038H409.926L410.104 39.3801L492.913 12.6454Z" fill="#7C79B1"/>
<path d="M492.878 12.8104L574.574 34.3119V423.943H492.878C492.878 423.943 489.74 16.173 492.878 12.8104Z" fill="url(#paint41_linear_401_27616)"/>
<path d="M482.328 423.943H477.592V30.4878L482.328 28.9368V423.943Z" fill="#6A66A7"/>
<path d="M471.08 31.8971V424.038H466.344V33.4481L471.08 31.8971Z" fill="#6A66A7"/>
<path d="M457.76 36.0405V424.037H453.024V37.5916L457.76 36.0405Z" fill="#6A66A7"/>
<path d="M446.512 39.0009V424.038H441.776V40.5519L446.512 39.0009Z" fill="#6A66A7"/>
<path d="M435.702 42.2454V424.038H430.966V43.8082L435.702 42.2454Z" fill="#6A66A7"/>
<path d="M424.454 45.2048V424.038H419.718V46.7677L424.454 45.2048Z" fill="#6A66A7"/>
<path d="M597.863 245.68L613.918 165.997L679.073 154.192L678.671 236.279L597.863 245.68Z" fill="#585899"/>
<path d="M587.55 270.319L589.397 246.864L679.026 234.799L678.73 263.215L587.55 270.319Z" fill="url(#paint42_linear_401_27616)"/>
<path d="M613.918 165.997L606.648 155.033L681.311 142.27L678.73 154.583L613.918 165.997Z" fill="#FBEEFF"/>
<path d="M621.176 168.507L606.849 238.256L617.777 236.989L631.666 166.577L621.176 168.507Z" fill="url(#paint43_linear_401_27616)"/>
<path d="M738.084 247.503L721.579 166.672L678.553 154.18V236.09L738.084 247.503Z" fill="url(#paint44_linear_401_27616)"/>
<path d="M721.579 166.671L726.978 157.104L681.24 142.304L678.505 154.701L721.579 166.671Z" fill="#9797BF"/>
<path d="M675.32 423.943H569.553V265.121L674.775 252.369L675.32 423.943Z" fill="#585899"/>
<path d="M747.959 270.994L746.112 247.55L678.553 234.905V260.811L747.959 270.994Z" fill="url(#paint45_linear_401_27616)"/>
<path d="M640.392 165.76L628.327 235.095L639.8 233.721L650.456 164.256L640.392 165.76Z" fill="url(#paint46_linear_401_27616)"/>
<path d="M674.728 252.381L674.882 423.943H766.251L766.097 269.431L674.728 252.381Z" fill="url(#paint47_linear_401_27616)"/>
<path d="M657.95 164.055L650.065 231.354L662.094 229.968L669.009 162.48L657.95 164.055Z" fill="url(#paint48_linear_401_27616)"/>
<path d="M587.159 278.086V423.943H582.719V278.086C582.719 277.518 582.945 276.972 583.347 276.571C583.749 276.169 584.294 275.943 584.862 275.943H585.028C585.594 275.946 586.136 276.173 586.536 276.575C586.935 276.976 587.159 277.52 587.159 278.086Z" fill="url(#paint49_linear_401_27616)"/>
<path d="M598.206 276.713V423.943H593.766V276.713C593.766 276.141 593.993 275.593 594.397 275.189C594.801 274.785 595.349 274.558 595.921 274.558H596.063C596.346 274.558 596.625 274.614 596.886 274.722C597.147 274.831 597.383 274.989 597.583 275.19C597.782 275.39 597.939 275.628 598.046 275.889C598.153 276.15 598.208 276.43 598.206 276.713Z" fill="url(#paint50_linear_401_27616)"/>
<path d="M609.265 276.121V423.943H604.825V276.121C604.823 275.838 604.877 275.558 604.984 275.297C605.091 275.036 605.249 274.798 605.448 274.598C605.647 274.397 605.884 274.239 606.145 274.13C606.406 274.022 606.685 273.966 606.968 273.966H607.122C607.404 273.966 607.684 274.022 607.945 274.13C608.205 274.239 608.442 274.397 608.641 274.598C608.84 274.798 608.998 275.036 609.105 275.297C609.212 275.558 609.266 275.838 609.265 276.121Z" fill="url(#paint51_linear_401_27616)"/>
<path d="M620.311 275.528V423.943H615.871V275.528C615.87 275.246 615.924 274.966 616.031 274.705C616.138 274.443 616.295 274.206 616.495 274.005C616.694 273.805 616.931 273.646 617.191 273.538C617.452 273.429 617.732 273.374 618.014 273.374H618.168C618.451 273.374 618.73 273.429 618.991 273.538C619.252 273.646 619.489 273.805 619.688 274.005C619.887 274.206 620.044 274.443 620.151 274.705C620.258 274.966 620.313 275.246 620.311 275.528Z" fill="url(#paint52_linear_401_27616)"/>
<path d="M631.856 274.049V423.943H627.416V274.049C627.414 273.767 627.468 273.487 627.575 273.225C627.682 272.964 627.84 272.726 628.039 272.526C628.238 272.326 628.475 272.167 628.736 272.058C628.997 271.95 629.276 271.894 629.559 271.894H629.713C629.995 271.894 630.275 271.95 630.535 272.058C630.796 272.167 631.033 272.326 631.232 272.526C631.431 272.726 631.589 272.964 631.696 273.225C631.803 273.487 631.857 273.767 631.856 274.049Z" fill="url(#paint53_linear_401_27616)"/>
<path d="M644.288 272.71V423.943H639.8V272.71C639.8 272.142 640.026 271.597 640.428 271.195C640.83 270.793 641.375 270.567 641.943 270.567H642.168C642.733 270.574 643.272 270.802 643.668 271.203C644.065 271.605 644.288 272.146 644.288 272.71Z" fill="url(#paint54_linear_401_27616)"/>
<path d="M657.169 271.823V423.031C657.173 423.348 657.1 423.661 656.956 423.943H652.942C652.798 423.661 652.725 423.348 652.729 423.031V271.823C652.729 271.254 652.955 270.709 653.357 270.307C653.759 269.906 654.304 269.68 654.872 269.68H655.014C655.297 269.678 655.577 269.732 655.838 269.839C656.099 269.946 656.337 270.104 656.537 270.303C656.738 270.502 656.896 270.739 657.005 271C657.113 271.261 657.169 271.54 657.169 271.823Z" fill="url(#paint55_linear_401_27616)"/>
<path d="M821.544 286.599V423.943H715.576V292.128L821.544 286.599Z" fill="url(#paint56_linear_401_27616)"/>
<path d="M728.008 305.993V310.137L804.672 307.769L804.53 302.879L728.008 305.993Z" fill="#313160"/>
<path d="M728.031 312.683L727.937 316.827L804.636 316.175L804.589 311.285L728.031 312.683Z" fill="#313160"/>
<path d="M727.736 320.674L727.641 324.818L804.341 324.167L804.293 319.277L727.736 320.674Z" fill="#313160"/>
<path d="M727.961 340.838L727.878 344.982L804.577 343.976L804.518 339.086L727.961 340.838Z" fill="#313160"/>
<path d="M727.854 347.528L727.688 351.66L804.388 352.371L804.435 347.492L727.854 347.528Z" fill="#313160"/>
<path d="M727.416 355.507L727.25 359.651L803.95 360.362L803.997 355.472L727.416 355.507Z" fill="#313160"/>
<path d="M728.008 374.061L727.914 378.205L804.613 377.648L804.578 372.759L728.008 374.061Z" fill="#313160"/>
<path d="M727.866 380.75L727.676 384.883L804.376 386.055L804.447 381.165L727.866 380.75Z" fill="#313160"/>
<path d="M727.392 388.73L727.191 392.863L803.89 394.035L803.962 389.145L727.392 388.73Z" fill="#313160"/>
<path d="M728.008 406.917L727.914 411.061L804.613 410.505L804.578 405.615L728.008 406.917Z" fill="#313160"/>
<path d="M727.866 413.606L727.676 417.739L804.376 418.911L804.447 414.021L727.866 413.606Z" fill="#313160"/>
<path d="M803.961 422.001L803.937 423.943H727.273L727.392 421.587L803.961 422.001Z" fill="#313160"/>
</g>
<defs>
<linearGradient id="paint0_linear_401_27616" x1="327.638" y1="318.034" x2="332.386" y2="419.349" gradientUnits="userSpaceOnUse">
<stop stop-color="#47477A"/>
<stop offset="0.76" stop-color="#343978"/>
<stop offset="1" stop-color="#2D3477"/>
</linearGradient>
<linearGradient id="paint1_linear_401_27616" x1="248.405" y1="323.741" x2="251.697" y2="408.729" gradientUnits="userSpaceOnUse">
<stop stop-color="#47477A"/>
<stop offset="0.1" stop-color="#504F83"/>
<stop offset="0.44" stop-color="#68669C"/>
<stop offset="0.75" stop-color="#7774AC"/>
<stop offset="1" stop-color="#7C79B1"/>
</linearGradient>
<linearGradient id="paint2_linear_401_27616" x1="71.1016" y1="325.706" x2="134.327" y2="325.706" gradientUnits="userSpaceOnUse">
<stop stop-color="#47477A"/>
<stop offset="0.41" stop-color="#3B3A67"/>
<stop offset="1" stop-color="#242344"/>
</linearGradient>
<linearGradient id="paint3_linear_401_27616" x1="123.789" y1="325.434" x2="240.745" y2="325.434" gradientUnits="userSpaceOnUse">
<stop stop-color="#47477A"/>
<stop offset="0.76" stop-color="#343978"/>
<stop offset="1" stop-color="#2D3477"/>
</linearGradient>
<linearGradient id="paint4_linear_401_27616" x1="32.1949" y1="244.851" x2="26.121" y2="426.193" gradientUnits="userSpaceOnUse">
<stop stop-color="#47477A"/>
<stop offset="0.41" stop-color="#3B3A67"/>
<stop offset="1" stop-color="#242344"/>
</linearGradient>
<linearGradient id="paint5_linear_401_27616" x1="48.6406" y1="246.213" x2="42.6377" y2="425.636" gradientUnits="userSpaceOnUse">
<stop stop-color="#47477A"/>
<stop offset="0.76" stop-color="#343978"/>
<stop offset="1" stop-color="#2D3477"/>
</linearGradient>
<linearGradient id="paint6_linear_401_27616" x1="10.8001" y1="436.967" x2="10.8001" y2="291.335" gradientUnits="userSpaceOnUse">
<stop stop-color="#6A57C8"/>
<stop offset="0.62" stop-color="#6A60B5"/>
<stop offset="1" stop-color="#6A66A7"/>
</linearGradient>
<linearGradient id="paint7_linear_401_27616" x1="-40.9999" y1="436.968" x2="10.8" y2="291.336" gradientUnits="userSpaceOnUse">
<stop stop-color="#6A57C8"/>
<stop offset="0.62" stop-color="#6A60B5"/>
<stop offset="1" stop-color="#6A66A7"/>
</linearGradient>
<linearGradient id="paint8_linear_401_27616" x1="-40.9999" y1="436.968" x2="10.8001" y2="291.336" gradientUnits="userSpaceOnUse">
<stop stop-color="#6A57C8"/>
<stop offset="0.62" stop-color="#6A60B5"/>
<stop offset="1" stop-color="#6A66A7"/>
</linearGradient>
<linearGradient id="paint9_linear_401_27616" x1="-40.9999" y1="436.967" x2="10.8001" y2="291.335" gradientUnits="userSpaceOnUse">
<stop stop-color="#6A57C8"/>
<stop offset="0.62" stop-color="#6A60B5"/>
<stop offset="1" stop-color="#6A66A7"/>
</linearGradient>
<linearGradient id="paint10_linear_401_27616" x1="-40.9999" y1="436.967" x2="10.8001" y2="291.335" gradientUnits="userSpaceOnUse">
<stop stop-color="#6A57C8"/>
<stop offset="0.62" stop-color="#6A60B5"/>
<stop offset="1" stop-color="#6A66A7"/>
</linearGradient>
<linearGradient id="paint11_linear_401_27616" x1="-40.9999" y1="436.967" x2="10.8001" y2="291.335" gradientUnits="userSpaceOnUse">
<stop stop-color="#6A57C8"/>
<stop offset="0.62" stop-color="#6A60B5"/>
<stop offset="1" stop-color="#6A66A7"/>
</linearGradient>
<linearGradient id="paint12_linear_401_27616" x1="-40.9999" y1="436.967" x2="10.8002" y2="291.335" gradientUnits="userSpaceOnUse">
<stop stop-color="#6A57C8"/>
<stop offset="0.62" stop-color="#6A60B5"/>
<stop offset="1" stop-color="#6A66A7"/>
</linearGradient>
<linearGradient id="paint13_linear_401_27616" x1="27.3757" y1="436.967" x2="27.3757" y2="291.335" gradientUnits="userSpaceOnUse">
<stop stop-color="#6A57C8"/>
<stop offset="0.62" stop-color="#6A60B5"/>
<stop offset="1" stop-color="#6A66A7"/>
</linearGradient>
<linearGradient id="paint14_linear_401_27616" x1="27.3757" y1="436.967" x2="27.3757" y2="291.335" gradientUnits="userSpaceOnUse">
<stop stop-color="#6A57C8"/>
<stop offset="0.62" stop-color="#6A60B5"/>
<stop offset="1" stop-color="#6A66A7"/>
</linearGradient>
<linearGradient id="paint15_linear_401_27616" x1="27.3757" y1="436.967" x2="27.3757" y2="291.335" gradientUnits="userSpaceOnUse">
<stop stop-color="#6A57C8"/>
<stop offset="0.62" stop-color="#6A60B5"/>
<stop offset="1" stop-color="#6A66A7"/>
</linearGradient>
<linearGradient id="paint16_linear_401_27616" x1="27.3757" y1="436.967" x2="27.3757" y2="291.335" gradientUnits="userSpaceOnUse">
<stop stop-color="#6A57C8"/>
<stop offset="0.62" stop-color="#6A60B5"/>
<stop offset="1" stop-color="#6A66A7"/>
</linearGradient>
<linearGradient id="paint17_linear_401_27616" x1="27.3757" y1="436.967" x2="27.3757" y2="291.335" gradientUnits="userSpaceOnUse">
<stop stop-color="#6A57C8"/>
<stop offset="0.62" stop-color="#6A60B5"/>
<stop offset="1" stop-color="#6A66A7"/>
</linearGradient>
<linearGradient id="paint18_linear_401_27616" x1="27.3757" y1="436.967" x2="27.3757" y2="291.335" gradientUnits="userSpaceOnUse">
<stop stop-color="#6A57C8"/>
<stop offset="0.62" stop-color="#6A60B5"/>
<stop offset="1" stop-color="#6A66A7"/>
</linearGradient>
<linearGradient id="paint19_linear_401_27616" x1="27.3757" y1="436.967" x2="27.3757" y2="291.335" gradientUnits="userSpaceOnUse">
<stop stop-color="#6A57C8"/>
<stop offset="0.62" stop-color="#6A60B5"/>
<stop offset="1" stop-color="#6A66A7"/>
</linearGradient>
<linearGradient id="paint20_linear_401_27616" x1="44.7454" y1="436.967" x2="44.7454" y2="291.336" gradientUnits="userSpaceOnUse">
<stop stop-color="#6A57C8"/>
<stop offset="0.62" stop-color="#6A60B5"/>
<stop offset="1" stop-color="#6A66A7"/>
</linearGradient>
<linearGradient id="paint21_linear_401_27616" x1="44.7454" y1="436.968" x2="44.7454" y2="291.336" gradientUnits="userSpaceOnUse">
<stop stop-color="#6A57C8"/>
<stop offset="0.62" stop-color="#6A60B5"/>
<stop offset="1" stop-color="#6A66A7"/>
</linearGradient>
<linearGradient id="paint22_linear_401_27616" x1="44.7454" y1="436.967" x2="44.7454" y2="291.335" gradientUnits="userSpaceOnUse">
<stop stop-color="#6A57C8"/>
<stop offset="0.62" stop-color="#6A60B5"/>
<stop offset="1" stop-color="#6A66A7"/>
</linearGradient>
<linearGradient id="paint23_linear_401_27616" x1="44.7454" y1="436.967" x2="44.7454" y2="291.335" gradientUnits="userSpaceOnUse">
<stop stop-color="#6A57C8"/>
<stop offset="0.62" stop-color="#6A60B5"/>
<stop offset="1" stop-color="#6A66A7"/>
</linearGradient>
<linearGradient id="paint24_linear_401_27616" x1="44.7454" y1="436.967" x2="44.7454" y2="291.335" gradientUnits="userSpaceOnUse">
<stop stop-color="#6A57C8"/>
<stop offset="0.62" stop-color="#6A60B5"/>
<stop offset="1" stop-color="#6A66A7"/>
</linearGradient>
<linearGradient id="paint25_linear_401_27616" x1="44.7454" y1="436.967" x2="44.7454" y2="291.335" gradientUnits="userSpaceOnUse">
<stop stop-color="#6A57C8"/>
<stop offset="0.62" stop-color="#6A60B5"/>
<stop offset="1" stop-color="#6A66A7"/>
</linearGradient>
<linearGradient id="paint26_linear_401_27616" x1="44.7454" y1="436.968" x2="44.7454" y2="291.336" gradientUnits="userSpaceOnUse">
<stop stop-color="#6A57C8"/>
<stop offset="0.62" stop-color="#6A60B5"/>
<stop offset="1" stop-color="#6A66A7"/>
</linearGradient>
<linearGradient id="paint27_linear_401_27616" x1="62.5056" y1="436.967" x2="62.5056" y2="291.335" gradientUnits="userSpaceOnUse">
<stop stop-color="#6A57C8"/>
<stop offset="0.62" stop-color="#6A60B5"/>
<stop offset="1" stop-color="#6A66A7"/>
</linearGradient>
<linearGradient id="paint28_linear_401_27616" x1="62.5056" y1="436.967" x2="62.5056" y2="291.335" gradientUnits="userSpaceOnUse">
<stop stop-color="#6A57C8"/>
<stop offset="0.62" stop-color="#6A60B5"/>
<stop offset="1" stop-color="#6A66A7"/>
</linearGradient>
<linearGradient id="paint29_linear_401_27616" x1="62.5056" y1="436.967" x2="62.5056" y2="291.335" gradientUnits="userSpaceOnUse">
<stop stop-color="#6A57C8"/>
<stop offset="0.62" stop-color="#6A60B5"/>
<stop offset="1" stop-color="#6A66A7"/>
</linearGradient>
<linearGradient id="paint30_linear_401_27616" x1="62.5056" y1="436.967" x2="62.5056" y2="291.335" gradientUnits="userSpaceOnUse">
<stop stop-color="#6A57C8"/>
<stop offset="0.62" stop-color="#6A60B5"/>
<stop offset="1" stop-color="#6A66A7"/>
</linearGradient>
<linearGradient id="paint31_linear_401_27616" x1="62.5056" y1="436.967" x2="62.5056" y2="291.335" gradientUnits="userSpaceOnUse">
<stop stop-color="#6A57C8"/>
<stop offset="0.62" stop-color="#6A60B5"/>
<stop offset="1" stop-color="#6A66A7"/>
</linearGradient>
<linearGradient id="paint32_linear_401_27616" x1="62.5056" y1="436.968" x2="62.5056" y2="291.336" gradientUnits="userSpaceOnUse">
<stop stop-color="#6A57C8"/>
<stop offset="0.62" stop-color="#6A60B5"/>
<stop offset="1" stop-color="#6A66A7"/>
</linearGradient>
<linearGradient id="paint33_linear_401_27616" x1="62.5056" y1="436.967" x2="62.5056" y2="291.335" gradientUnits="userSpaceOnUse">
<stop stop-color="#6A57C8"/>
<stop offset="0.62" stop-color="#6A60B5"/>
<stop offset="1" stop-color="#6A66A7"/>
</linearGradient>
<linearGradient id="paint34_linear_401_27616" x1="80.656" y1="436.967" x2="80.656" y2="291.335" gradientUnits="userSpaceOnUse">
<stop stop-color="#6A57C8"/>
<stop offset="0.62" stop-color="#6A60B5"/>
<stop offset="1" stop-color="#6A66A7"/>
</linearGradient>
<linearGradient id="paint35_linear_401_27616" x1="80.656" y1="436.967" x2="80.656" y2="291.335" gradientUnits="userSpaceOnUse">
<stop stop-color="#6A57C8"/>
<stop offset="0.62" stop-color="#6A60B5"/>
<stop offset="1" stop-color="#6A66A7"/>
</linearGradient>
<linearGradient id="paint36_linear_401_27616" x1="80.656" y1="436.967" x2="80.656" y2="291.335" gradientUnits="userSpaceOnUse">
<stop stop-color="#6A57C8"/>
<stop offset="0.62" stop-color="#6A60B5"/>
<stop offset="1" stop-color="#6A66A7"/>
</linearGradient>
<linearGradient id="paint37_linear_401_27616" x1="80.656" y1="436.968" x2="80.656" y2="291.335" gradientUnits="userSpaceOnUse">
<stop stop-color="#6A57C8"/>
<stop offset="0.62" stop-color="#6A60B5"/>
<stop offset="1" stop-color="#6A66A7"/>
</linearGradient>
<linearGradient id="paint38_linear_401_27616" x1="80.656" y1="436.967" x2="80.656" y2="291.335" gradientUnits="userSpaceOnUse">
<stop stop-color="#6A57C8"/>
<stop offset="0.62" stop-color="#6A60B5"/>
<stop offset="1" stop-color="#6A66A7"/>
</linearGradient>
<linearGradient id="paint39_linear_401_27616" x1="80.656" y1="436.968" x2="80.656" y2="291.336" gradientUnits="userSpaceOnUse">
<stop stop-color="#6A57C8"/>
<stop offset="0.62" stop-color="#6A60B5"/>
<stop offset="1" stop-color="#6A66A7"/>
</linearGradient>
<linearGradient id="paint40_linear_401_27616" x1="80.656" y1="436.967" x2="80.656" y2="291.335" gradientUnits="userSpaceOnUse">
<stop stop-color="#6A57C8"/>
<stop offset="0.62" stop-color="#6A60B5"/>
<stop offset="1" stop-color="#6A66A7"/>
</linearGradient>
<linearGradient id="paint41_linear_401_27616" x1="447.507" y1="27.9893" x2="643.98" y2="486.399" gradientUnits="userSpaceOnUse">
<stop stop-color="#47477A"/>
<stop offset="0.1" stop-color="#504F83"/>
<stop offset="0.44" stop-color="#68669C"/>
<stop offset="0.75" stop-color="#7774AC"/>
<stop offset="1" stop-color="#7C79B1"/>
</linearGradient>
<linearGradient id="paint42_linear_401_27616" x1="587.55" y1="252.559" x2="679.026" y2="252.559" gradientUnits="userSpaceOnUse">
<stop stop-color="#47477A"/>
<stop offset="0.1" stop-color="#504F83"/>
<stop offset="0.44" stop-color="#68669C"/>
<stop offset="0.75" stop-color="#7774AC"/>
<stop offset="1" stop-color="#7C79B1"/>
</linearGradient>
<linearGradient id="paint43_linear_401_27616" x1="619.257" y1="187.545" x2="619.257" y2="293.312" gradientUnits="userSpaceOnUse">
<stop stop-color="#47477A"/>
<stop offset="0.41" stop-color="#3B3A67"/>
<stop offset="1" stop-color="#242344"/>
</linearGradient>
<linearGradient id="paint44_linear_401_27616" x1="712.759" y1="223.101" x2="619.744" y2="63.8885" gradientUnits="userSpaceOnUse">
<stop stop-color="#47477A"/>
<stop offset="0.41" stop-color="#3B3A67"/>
<stop offset="1" stop-color="#242344"/>
</linearGradient>
<linearGradient id="paint45_linear_401_27616" x1="678.553" y1="252.949" x2="747.959" y2="252.949" gradientUnits="userSpaceOnUse">
<stop stop-color="#47477A"/>
<stop offset="0.1" stop-color="#504F83"/>
<stop offset="0.44" stop-color="#68669C"/>
<stop offset="0.75" stop-color="#7774AC"/>
<stop offset="1" stop-color="#7C79B1"/>
</linearGradient>
<linearGradient id="paint46_linear_401_27616" x1="639.398" y1="187.545" x2="639.398" y2="293.312" gradientUnits="userSpaceOnUse">
<stop stop-color="#47477A"/>
<stop offset="0.41" stop-color="#3B3A67"/>
<stop offset="1" stop-color="#242344"/>
</linearGradient>
<linearGradient id="paint47_linear_401_27616" x1="674.728" y1="338.162" x2="766.251" y2="338.162" gradientUnits="userSpaceOnUse">
<stop stop-color="#47477A"/>
<stop offset="0.41" stop-color="#3B3A67"/>
<stop offset="1" stop-color="#242344"/>
</linearGradient>
<linearGradient id="paint48_linear_401_27616" x1="659.537" y1="187.546" x2="659.537" y2="293.312" gradientUnits="userSpaceOnUse">
<stop stop-color="#47477A"/>
<stop offset="0.41" stop-color="#3B3A67"/>
<stop offset="1" stop-color="#242344"/>
</linearGradient>
<linearGradient id="paint49_linear_401_27616" x1="581.606" y1="341.465" x2="627.782" y2="471.113" gradientUnits="userSpaceOnUse">
<stop stop-color="#47477A"/>
<stop offset="0.41" stop-color="#3B3A67"/>
<stop offset="1" stop-color="#242344"/>
</linearGradient>
<linearGradient id="paint50_linear_401_27616" x1="591.623" y1="337.902" x2="637.799" y2="467.55" gradientUnits="userSpaceOnUse">
<stop stop-color="#47477A"/>
<stop offset="0.41" stop-color="#3B3A67"/>
<stop offset="1" stop-color="#242344"/>
</linearGradient>
<linearGradient id="paint51_linear_401_27616" x1="601.533" y1="334.374" x2="647.709" y2="464.022" gradientUnits="userSpaceOnUse">
<stop stop-color="#47477A"/>
<stop offset="0.41" stop-color="#3B3A67"/>
<stop offset="1" stop-color="#242344"/>
</linearGradient>
<linearGradient id="paint52_linear_401_27616" x1="611.431" y1="330.845" x2="657.607" y2="460.493" gradientUnits="userSpaceOnUse">
<stop stop-color="#47477A"/>
<stop offset="0.41" stop-color="#3B3A67"/>
<stop offset="1" stop-color="#242344"/>
</linearGradient>
<linearGradient id="paint53_linear_401_27616" x1="621.91" y1="327.116" x2="668.086" y2="456.764" gradientUnits="userSpaceOnUse">
<stop stop-color="#47477A"/>
<stop offset="0.41" stop-color="#3B3A67"/>
<stop offset="1" stop-color="#242344"/>
</linearGradient>
<linearGradient id="paint54_linear_401_27616" x1="633.146" y1="323.113" x2="679.322" y2="452.761" gradientUnits="userSpaceOnUse">
<stop stop-color="#47477A"/>
<stop offset="0.41" stop-color="#3B3A67"/>
<stop offset="1" stop-color="#242344"/>
</linearGradient>
<linearGradient id="paint55_linear_401_27616" x1="644.808" y1="318.958" x2="690.984" y2="448.606" gradientUnits="userSpaceOnUse">
<stop stop-color="#47477A"/>
<stop offset="0.41" stop-color="#3B3A67"/>
<stop offset="1" stop-color="#242344"/>
</linearGradient>
<linearGradient id="paint56_linear_401_27616" x1="755.903" y1="325.256" x2="807.028" y2="446.545" gradientUnits="userSpaceOnUse">
<stop stop-color="#47477A"/>
<stop offset="0.76" stop-color="#343978"/>
<stop offset="1" stop-color="#2D3477"/>
</linearGradient>
<clipPath id="clip0_401_27616">
<rect width="888" height="424.855" fill="white" transform="translate(-41)"/>
</clipPath>
</defs>
</svg>
