<svg width="114" height="67" viewBox="0 0 114 67" fill="none" xmlns="http://www.w3.org/2000/svg">
<g opacity="0.4">
<path d="M112.751 46.7876C111.996 48.5304 110.967 50.1414 109.703 51.5596C107.738 53.7244 105.291 55.3967 102.561 56.4416C99.8301 57.4865 96.892 57.8746 93.9837 57.5747L90.7823 57.2806L90.1941 58.0492C87.6811 61.3665 84.2602 63.884 80.3456 65.2968C76.4311 66.7096 72.1909 66.9571 68.1386 66.0093C65.5531 65.4786 63.0615 64.564 60.7467 63.2958C58.7416 62.0593 56.5895 59.8939 56.4626 57.3809C55.8704 58.3186 55.1606 59.1766 54.3506 59.934C49.7991 64.4787 44.7665 64.3384 38.9184 63.8973C32.549 63.4228 25.4779 59.9473 25.3041 52.7225C25.3041 52.3014 25.2707 51.9806 25.2172 51.2655C22.3567 53.0767 20.3183 55.0484 16.7693 55.7234C13.7684 56.3072 10.6626 56.0101 7.82682 54.8679C5.52707 53.8829 3.55786 52.2593 2.15253 50.1895C1.3766 49.0729 0.791623 47.8352 0.421513 46.5269C0.0298764 45.1736 -0.0905032 43.7563 0.067289 42.3564C0.675486 37.1166 4.77915 31.7297 9.99895 32.5116C7.99391 27.6126 10.3732 22.4864 14.2229 18.8105C18.0726 15.1346 23.6934 12.7953 28.4788 15.0878C29.0202 6.83367 36.626 0.892046 44.8533 0.0766604C53.0807 -0.738725 61.4885 5.04249 63.654 13.0293C75.0159 7.74262 90.3011 15.5088 92.7272 27.7797C100.507 23.3552 111.441 29.1164 113.613 37.6579C113.762 38.2283 113.867 38.8092 113.927 39.3956C114.179 41.9198 113.774 44.4663 112.751 46.7876Z" fill="#E2F2FF"/>
<path d="M113.62 37.6112C111.154 32.1975 105.526 29.1432 100.848 28.7823C93.9836 28.2543 91.3437 31.4557 91.3437 31.4557C90.8157 24.5917 87.6477 18.2558 77.6158 15.0878C67.5838 11.9198 62.3106 17.1998 62.3106 17.1998C61.8093 12.2072 58.902 7.97657 54.8318 5.16951C50.1934 1.96812 43.6102 1.86787 38.5775 4.18704C33.1238 6.70003 31.3527 11.7995 31.6868 17.7345C29.5748 16.6785 26.5071 16.8255 26.0126 16.772C21.5346 16.2842 16.9832 18.8907 14.1828 22.2592C12.8148 23.8329 11.8919 25.7433 11.5094 27.7931C11.3824 28.5684 11.603 32.5183 12.6589 34.1023C10.4487 34.1 8.27213 34.6441 6.323 35.6863C1.04305 38.3263 0.428166 46.3064 0.441533 46.5336C0.049896 45.1804 -0.0704836 43.763 0.0873085 42.3631C0.695506 37.1233 4.79917 31.7364 10.019 32.5183C8.01393 27.6193 10.3932 22.4931 14.2429 18.8172C18.0926 15.1413 23.7134 12.802 28.4988 15.0945C29.0402 6.84038 36.646 0.89876 44.8734 0.0833744C53.1007 -0.732011 61.5086 5.0492 63.674 13.036C75.0359 7.74933 90.3211 15.5155 92.7472 27.7864C100.513 23.3219 111.448 29.063 113.62 37.6112Z" fill="white"/>
<path d="M47.4663 20.2341C47.4663 20.2341 61.0739 7.42849 74.9154 20.4947C74.9154 20.468 62.9386 14.1053 47.4663 20.2341Z" fill="white"/>
<path d="M26.8682 33.8818C26.8682 33.8818 42.8484 17.4671 59.0826 34.1892C59.0826 34.1892 45.0272 26.0621 26.8682 33.8818Z" fill="white"/>
<path d="M80.7573 33.9285C80.7573 33.9285 91.7249 23.6092 102.88 34.1357C102.853 34.1357 93.2287 29.0162 80.7573 33.9285Z" fill="white"/>
<path d="M13.7017 19.8063C23.7269 12.9423 35.8307 19.3585 35.8307 19.3585C24.6559 8.8253 13.7017 19.8063 13.7017 19.8063Z" fill="white"/>
<path d="M112.751 46.7876C111.996 48.5305 110.967 50.1415 109.703 51.5596C107.738 53.7244 105.291 55.3968 102.561 56.4417C99.8299 57.4865 96.8918 57.8747 93.9835 57.5747L90.7821 57.2807L90.1939 58.0493C87.6809 61.3666 84.26 63.884 80.3455 65.2968C76.4309 66.7096 72.1907 66.9571 68.1384 66.0093C65.5529 65.4787 63.0613 64.564 60.7465 63.2958C58.7414 62.0594 56.5893 59.8939 56.4624 57.3809C55.8702 58.3186 55.1604 59.1766 54.3504 59.934C49.7989 64.4788 44.7663 64.3384 38.9182 63.8973C32.5488 63.4228 25.4777 59.9474 25.3039 52.7225C25.3039 52.3015 25.2705 51.9807 25.2171 51.2655C22.3565 53.0768 20.3181 55.0484 16.7691 55.7234C13.7682 56.3072 10.6624 56.0101 7.82663 54.8679C5.52688 53.8829 3.55767 52.2593 2.15234 50.1895C7.31868 51.2188 19.8636 54.3266 26.3666 47.8235C25.9322 48.258 29.6148 52.1277 29.9089 52.3884C33.7318 55.9306 39.0185 57.1069 44.0979 56.8329C46.7266 56.6751 49.3259 56.1947 51.8374 55.4026C53.7275 54.8158 55.48 53.8543 56.9904 52.5755C59.6303 57.3275 68.2119 60.4553 78.6315 57.3275C78.6315 57.3275 86.0234 55.2155 88.6567 49.4075C88.6701 49.3741 102.852 53.2305 112.751 46.7876Z" fill="#B8D5F3"/>
<path d="M80.2227 45.1501C80.2227 45.1501 91.11 53.9256 103.394 45.1501C103.394 45.1501 92.1594 61.6717 80.2227 45.1501Z" fill="#B8D5F3"/>
<path d="M14.4902 45.2369C17.599 46.8066 21.0329 47.6244 24.5155 47.6244C27.998 47.6244 31.4319 46.8066 34.5407 45.2369C34.5407 45.2369 24.8296 55.4092 14.4902 45.2369Z" fill="#B8D5F3"/>
<path d="M41.9463 47.2621C41.9463 47.2621 56.7034 58.0827 73.3587 47.2621C73.3654 47.2621 58.1337 67.5999 41.9463 47.2621Z" fill="#B8D5F3"/>
</g>
</svg>
