<svg width="313" height="197" viewBox="0 0 313 197" fill="none" xmlns="http://www.w3.org/2000/svg">
<g opacity="0.2">
<path d="M310.49 122.86C309.337 125.963 307.759 128.893 305.802 131.568C305.56 131.912 305.3 132.239 305.041 132.566C291.028 150.531 262.327 156.502 239.907 148.053C229.527 173.675 202.348 192.879 172.627 195.701C142.906 198.524 112.077 184.843 96.0751 161.75C81.249 166.913 62.7381 160.735 55.0916 147.984C52.1679 153.783 41.8398 155.796 40.352 156.192C34.7473 157.557 28.9059 157.651 23.2597 156.467C16.718 155.21 10.7355 151.949 6.15008 147.141C3.0944 143.991 1.08365 139.985 0.389206 135.663C0.389206 135.285 0.285404 134.923 0.250804 134.562C-2.22308 112.605 14.4194 109.301 14.4194 109.301C14.2036 106.633 14.7744 103.96 16.0618 101.61C17.3492 99.2598 19.2974 97.3338 21.6681 96.0678C30.1278 91.2495 34.9717 94.8632 34.9717 94.8632C35.0232 91.6294 35.3882 88.4081 36.0616 85.244C39.3659 74.9193 50.3168 66.9176 61.3541 64.1988C67.9842 62.612 74.9081 62.7003 81.4952 64.4555C88.0822 66.2107 94.1232 69.5771 99.0679 74.2482C105.728 50.3292 138.858 36.1499 163.181 46.8188C170.568 16.1715 207.988 -5.63084 241.585 1.28673C275.181 8.20429 298.813 42.5857 291.08 73.2329C309.885 81.9573 317.358 104.741 310.49 122.86Z" fill="#E2F2FF"/>
<path d="M304.732 132.287C290.722 150.331 262.027 156.328 239.612 147.842C229.234 173.577 202.062 192.866 172.347 195.7C142.632 198.535 111.81 184.794 95.8109 161.6C80.9881 166.785 62.4812 160.58 54.8362 147.773C51.9132 153.598 41.5873 155.62 40.0999 156.017C34.4964 157.388 28.6562 157.483 23.0112 156.294C16.4709 155.031 10.4897 151.755 5.90527 146.926C17.2689 147.41 39.0621 146.926 52.8472 136.694C52.8472 136.694 65.0929 149.035 81.8529 152.388C93.9602 154.807 101.19 149.968 101.19 149.968C101.19 149.968 126.114 179.747 179.732 168.271C213.563 161.029 235.322 134.465 235.322 134.465C235.322 134.465 273.893 149.882 304.732 132.287Z" fill="#B8D5F3"/>
<path d="M145.28 139.374C145.28 139.374 110.356 184.552 81.4991 139.374C81.4474 139.374 105.546 159.036 145.28 139.374Z" fill="#B8D5F3"/>
<path d="M73.2306 132.287C73.2306 132.287 46.0832 153.547 23.623 132.287C23.623 132.287 42.337 141.531 73.2306 132.287Z" fill="#B8D5F3"/>
<path d="M185.438 121.656C185.438 121.656 230.67 177.465 268.118 121.656C268.083 121.656 236.912 145.922 185.438 121.656Z" fill="#B8D5F3"/>
<path d="M145.79 66.3473C151.076 64.4045 156.497 62.8298 162.013 61.6353C180.606 57.6133 195.757 66.0107 212.604 72.944C209.023 69.3932 206.394 66.4483 203.298 63.6379C199.537 60.309 195.236 57.608 190.569 55.6444C171.906 47.6004 149.474 53.1033 135.222 68.8211L131.105 73.2301C135.862 70.6671 140.765 68.3691 145.79 66.3473Z" fill="white"/>
<path d="M80.4371 85.9963C83.0784 85.2442 84.2503 84.8243 86.0345 84.4745C96.8794 82.3753 110.733 84.5619 120.476 87.8156C118.429 86.0663 116.977 84.7019 115.228 83.3724C112.994 81.7292 110.515 80.4482 107.882 79.5765C102.38 77.786 96.5053 77.4721 90.8446 78.6663C85.1839 79.8605 79.9362 82.5209 75.6269 86.3812L73.2305 88.5853C75.5528 87.5144 77.9642 86.6481 80.4371 85.9963Z" fill="white"/>
<path d="M306.519 86.7062C305.713 85.4642 304.835 84.2699 303.889 83.1294C302.46 81.3843 300.867 79.7778 299.132 78.3317C296.689 76.2693 293.984 74.5348 291.087 73.1728C291.529 71.4282 291.87 69.6598 292.108 67.8764C296.087 38.6429 273.268 7.77584 241.591 1.27569C207.993 -5.60277 170.659 16.1504 163.186 46.8971C138.965 36.2355 105.731 50.3363 99.0704 74.3078C94.1255 69.6399 88.0844 66.2758 81.4972 64.5218C74.91 62.7678 67.986 62.6796 61.3557 64.2652C50.2661 67.1198 39.3669 75.03 36.0625 85.3649C35.389 88.5268 35.0241 91.7459 34.9726 94.9775C34.9726 94.9775 30.1285 91.3664 21.6687 96.1813C19.2979 97.4465 17.3496 99.3711 16.0622 101.72C14.7747 104.068 14.204 106.739 14.4198 109.405C14.4198 109.405 -2.22314 112.707 0.25081 134.649C1.56564 130.419 6.75576 116.249 18.0529 114.203C17.7767 111.663 18.1913 109.097 19.2533 106.771C20.3153 104.445 21.9859 102.445 24.0907 100.979C31.3395 96.1813 39.7994 100.979 39.7994 100.979C39.7994 100.979 34.9726 79.3634 57.9302 70.9545C80.8877 62.5456 100.247 82.9918 100.247 82.9918C100.247 82.9918 108.707 58.9172 125.626 54.1539C142.546 49.3905 153.445 51.7636 167.943 56.5613C167.943 56.5613 171.576 24.1122 207.838 10.9055C244.099 -2.30111 285.101 24.5249 283.163 63.6118C283.079 65.0293 282.883 66.438 282.575 67.8248C282.212 69.5444 281.728 71.264 281.295 72.9837C277.344 72.9367 273.403 73.3874 269.565 74.325C266.475 75.0224 263.474 76.0666 260.621 77.4375C256.336 79.638 252.523 82.6458 249.393 86.2935C249.393 86.2935 267.126 74.0842 288.613 78.7272C293.25 80.7219 299.201 84.9178 304.547 93.791C309.737 102.269 310.775 113.429 310.498 122.853C312.673 116.929 313.445 110.586 312.755 104.318C312.065 98.0489 309.931 92.0226 306.519 86.7062Z" fill="white"/>
</g>
</svg>
