<svg width="57" height="36" viewBox="0 0 57 36" fill="none" xmlns="http://www.w3.org/2000/svg">
<g opacity="0.9">
<path d="M0.457047 22.3739C0.667114 22.939 0.954411 23.4725 1.31083 23.9596C1.35493 24.0223 1.40219 24.0818 1.44945 24.1414C4.00132 27.4129 9.22794 28.5003 13.3109 26.9617C15.2012 31.6278 20.1506 35.125 25.5631 35.6389C30.9756 36.1528 36.5897 33.6615 39.5039 29.4561C42.2038 30.3962 45.5748 29.2712 46.9674 26.9492C47.4998 28.0052 49.3806 28.3719 49.6515 28.4439C50.6722 28.6925 51.736 28.7096 52.7642 28.4941C53.9555 28.2651 55.045 27.6712 55.88 26.7956C56.4365 26.2221 56.8027 25.4925 56.9291 24.7054C56.9291 24.6365 56.948 24.5707 56.9543 24.5049C57.4048 20.5063 54.3741 19.9046 54.3741 19.9046C54.4134 19.4187 54.3095 18.9321 54.075 18.5041C53.8406 18.0761 53.4858 17.7253 53.0541 17.4948C51.5135 16.6173 50.6313 17.2754 50.6313 17.2754C50.622 16.6865 50.5555 16.0999 50.4329 15.5237C49.8311 13.6434 47.8369 12.1863 45.8269 11.6911C44.6195 11.4022 43.3586 11.4183 42.159 11.7379C40.9595 12.0575 39.8594 12.6706 38.9589 13.5212C37.7459 9.16538 31.7128 6.58321 27.2833 8.5261C25.938 2.94498 19.1236 -1.02543 13.0053 0.234324C6.88715 1.49407 2.58361 7.75521 3.99187 13.3363C0.56731 14.9251 -0.79369 19.0742 0.457047 22.3739Z" fill="#E2F2FF"/>
<path d="M1.50594 24.0906C4.05726 27.3765 9.28276 28.4687 13.3649 26.9233C15.2548 31.6099 20.2031 35.1224 25.6144 35.6386C31.0257 36.1548 36.6387 33.6526 39.5522 29.4287C42.2516 30.3729 45.6218 29.243 47.0141 26.9107C47.5464 27.9714 49.4268 28.3397 49.6977 28.412C50.7181 28.6617 51.7817 28.6789 52.8097 28.4624C54.0007 28.2324 55.0899 27.6359 55.9248 26.7565C53.8554 26.8446 49.8867 26.7565 47.3763 24.8932C47.3763 24.8932 45.1462 27.1405 42.0941 27.7511C39.8892 28.1917 38.5726 27.3104 38.5726 27.3104C38.5726 27.3104 34.0338 32.7335 24.2694 30.6436C18.1085 29.3248 14.146 24.4872 14.146 24.4872C14.146 24.4872 7.12201 27.2947 1.50594 24.0906Z" fill="#B8D5F3"/>
<path d="M30.5431 25.3812C30.5431 25.3812 36.9032 33.6086 42.1582 25.3812C42.1676 25.3812 37.779 28.9619 30.5431 25.3812Z" fill="#B8D5F3"/>
<path d="M43.6643 24.0906C43.6643 24.0906 48.608 27.9623 52.6982 24.0906C52.6982 24.0906 49.2903 25.7741 43.6643 24.0906Z" fill="#B8D5F3"/>
<path d="M23.23 22.1548C23.23 22.1548 14.9929 32.318 8.17338 22.1548C8.17962 22.1548 13.8563 26.5738 23.23 22.1548Z" fill="#B8D5F3"/>
<path d="M30.4504 12.0825C29.4877 11.7287 28.5004 11.442 27.496 11.2244C24.11 10.492 21.3508 12.0212 18.283 13.2838C18.935 12.6372 19.4138 12.1009 19.9776 11.5891C20.6625 10.9829 21.4458 10.491 22.2958 10.1334C25.6943 8.66854 29.7795 9.67067 32.3749 12.533L33.1245 13.3359C32.2583 12.8692 31.3654 12.4507 30.4504 12.0825Z" fill="white"/>
<path d="M42.3517 15.6607C41.8707 15.5237 41.6573 15.4472 41.3323 15.3835C39.3574 15.0013 36.8346 15.3995 35.0603 15.992C35.433 15.6734 35.6974 15.4249 36.0159 15.1828C36.4228 14.8836 36.8743 14.6503 37.3538 14.4916C38.3556 14.1655 39.4255 14.1083 40.4564 14.3258C41.4872 14.5433 42.4429 15.0278 43.2277 15.7308L43.6641 16.1321C43.2411 15.9371 42.802 15.7794 42.3517 15.6607Z" fill="white"/>
<path d="M1.18025 15.7899C1.32703 15.5638 1.48692 15.3463 1.65913 15.1386C1.91949 14.8208 2.20959 14.5282 2.52553 14.2649C2.97036 13.8893 3.46291 13.5734 3.99053 13.3254C3.9101 13.0077 3.84804 12.6856 3.80465 12.3609C3.08002 7.03721 7.2356 1.41605 13.0042 0.232315C19.1226 -1.02031 25.9215 2.94112 27.2825 8.54037C31.6933 6.59879 37.7455 9.16668 38.9584 13.5321C39.8589 12.682 40.9591 12.0694 42.1587 11.75C43.3582 11.4306 44.6192 11.4145 45.8266 11.7032C47.8461 12.2231 49.8309 13.6636 50.4327 15.5457C50.5553 16.1215 50.6218 16.7077 50.6312 17.2962C50.6312 17.2962 51.5133 16.6386 53.054 17.5154C53.4857 17.7458 53.8405 18.0963 54.0749 18.524C54.3094 18.9517 54.4133 19.4381 54.374 19.9236C54.374 19.9236 57.4049 20.5249 56.9543 24.5208C56.7149 23.7504 55.7697 21.17 53.7124 20.7973C53.7627 20.3348 53.6872 19.8674 53.4938 19.4438C53.3004 19.0203 52.9962 18.656 52.6129 18.3891C51.2928 17.5154 49.7522 18.3891 49.7522 18.3891C49.7522 18.3891 50.6312 14.4528 46.4504 12.9214C42.2696 11.3901 38.7442 15.1135 38.7442 15.1135C38.7442 15.1135 37.2036 10.7293 34.1223 9.86189C31.0411 8.99444 29.0563 9.4266 26.4161 10.3003C26.4161 10.3003 25.7545 4.39104 19.151 1.98599C12.5474 -0.419051 5.08063 4.4662 5.43349 11.5842C5.44883 11.8424 5.48464 12.0989 5.5406 12.3515C5.60677 12.6646 5.69498 12.9778 5.77374 13.291C6.49328 13.2824 7.21102 13.3645 7.90981 13.5352C8.4726 13.6622 9.01905 13.8524 9.53864 14.102C10.319 14.5028 11.0134 15.0505 11.5833 15.7148C11.5833 15.7148 8.35404 13.4914 4.44107 14.3369C3.59672 14.7002 2.51293 15.4643 1.53941 17.0802C0.594246 18.624 0.405212 20.6564 0.455624 22.3725C0.0595894 21.2937 -0.0810432 20.1387 0.0446243 18.9971C0.170288 17.8555 0.558884 16.7581 1.18025 15.7899Z" fill="white"/>
</g>
</svg>
