<svg width="262" height="106" viewBox="0 0 262 106" fill="none" xmlns="http://www.w3.org/2000/svg">
<g opacity="0.6">
<path d="M261.117 75.3171C261.078 75.4952 261.027 75.6704 260.964 75.8415C259.701 80.0633 257.086 83.7529 253.52 86.3422C245.718 91.8292 234.578 91.3304 226.545 86.1632C219.626 98.0325 205.058 104.492 191.385 103.059C177.713 101.627 165.306 93.0443 157.837 81.4948C157.877 81.6977 157.907 81.9026 157.926 82.1087C157.938 82.1677 157.938 82.2287 157.926 82.2878C158.297 85.2423 158.63 95.6791 145.852 99.4394C130.913 103.826 126.104 91.663 126.104 91.663C126.539 95.5 114.503 102.061 111.689 103.174C105.468 105.66 98.6347 106.182 92.1077 104.671C77.9617 101.345 65.9517 89.0026 62.4344 75.0357C55.144 81.6099 42.6736 81.2773 35.7413 74.3195C35.7816 74.3941 35.8027 74.4776 35.8027 74.5625C35.8027 74.6473 35.7816 74.7308 35.7413 74.8055C35.3064 76.3787 31.7891 80.5611 31.2775 81.0855C29.1823 83.2822 26.6571 85.0238 23.8592 86.2016C20.9418 87.4928 17.6515 87.6669 14.6141 86.6906C11.5767 85.7143 9.0041 83.6557 7.38542 80.9064C6.4769 79.3222 5.97179 77.5389 5.91454 75.7136C5.8927 74.4843 6.06096 73.2591 6.41336 72.0812C6.51568 71.7486 7.12961 69.5871 7.76912 67.8732L8.05051 67.1186C8.05051 67.0546 8.05051 66.9779 8.15283 66.9012L8.22957 66.6965C8.36491 66.366 8.54571 66.0561 8.76676 65.7756H8.8435C8.85735 65.7526 8.87589 65.7327 8.89793 65.7173C8.91996 65.7018 8.945 65.6912 8.9714 65.6861C6.66269 64.8726 4.62082 63.4424 3.06732 61.5507C1.51381 59.659 0.507984 57.3779 0.158952 54.9551C0.158952 54.7249 0.158952 54.4819 0.0694209 54.2516C-0.141771 52.3139 0.130685 50.3539 0.862413 48.5472C1.60121 46.9357 2.65235 45.4867 3.95499 44.2841C5.25763 43.0816 6.78588 42.1494 8.45125 41.5415C10.1166 40.9337 11.886 40.6622 13.657 40.7429C15.4281 40.8235 17.1655 41.2547 18.7687 42.0114C18.871 30.334 32.3263 20.9204 43.3259 24.8214C43.6584 9.47317 60.7333 -2.39614 75.8386 0.520027C90.9438 3.43619 101.995 18.4263 102.877 33.8513C105.513 32.0583 108.66 31.1689 111.845 31.3165C115.03 31.4641 118.081 32.6407 120.54 34.6699C120.54 34.5036 120.54 34.3629 120.54 34.1966C120.451 33.3781 120.412 32.5851 120.4 31.7793C120.4 31.5746 120.4 31.3828 120.4 31.1781C120.54 16.5461 132.525 2.55366 147.259 0.890934C163.119 -0.912484 179.158 12.0184 180.757 27.9038C189.147 18.7205 207.04 22.3529 211.172 34.0815C216.058 26.9062 227.952 27.0469 233.823 33.4292C239.694 39.8115 239.63 50.2739 235.102 57.6411C241.766 50.8239 254.722 52.9726 259.685 61.12C260.867 63.0731 261.629 65.2511 261.923 67.5151V67.8093C262.149 70.3405 261.875 72.8915 261.117 75.3171Z" fill="#E2F2FF"/>
<path d="M260.939 75.8407C259.676 80.0625 257.06 83.7521 253.495 86.3414C245.693 91.8284 234.553 91.3296 226.52 86.1624C219.601 98.0317 205.033 104.491 191.36 103.058C177.687 101.626 165.281 93.0435 157.811 81.494C157.852 81.6969 157.882 81.9018 157.901 82.1079C157.876 82.0541 157.846 82.0027 157.811 81.9544L157.926 82.2869C158.297 85.2415 158.63 95.6783 145.853 99.4386C130.914 103.826 126.104 91.6622 126.104 91.6622C126.539 95.4992 114.504 102.061 111.69 103.173C105.468 105.659 98.6351 106.181 92.1081 104.67C77.9622 101.344 65.9522 89.0018 62.4349 75.0349C55.1444 81.6091 42.674 81.2765 35.7417 74.3187C35.782 74.3933 35.8031 74.4768 35.8031 74.5617C35.8031 74.6465 35.782 74.73 35.7417 74.8047C35.3068 76.3779 31.7895 80.5603 31.2779 81.0847C29.1828 83.2814 26.6575 85.0229 23.8596 86.2007C20.9422 87.492 17.6519 87.6661 14.6145 86.6898C11.5772 85.7135 9.00452 83.6549 7.38584 80.9056C6.47733 79.3214 5.97222 77.5381 5.91497 75.7128C5.89313 74.4835 6.06139 73.2583 6.41379 72.0804C6.51611 71.7478 7.13004 69.5863 7.76955 67.8724L8.05093 67.1178C8.05093 67.0538 8.05093 66.9771 8.15325 66.9003L8.23 66.6957C9.50902 69.0491 14.3181 75.7895 22.5294 73.2699C23.5654 72.9501 24.6398 72.6048 25.6758 72.1955C27.6769 71.5253 29.4496 70.3066 30.7919 68.6782L34.3092 64.2783C34.3092 64.2783 34.9104 64.6876 35.9591 65.2504C39.7707 67.3563 44.0263 68.5308 48.3784 68.6782C58.035 68.6782 66.8347 59.0088 66.8347 59.0088C66.8347 59.0088 75.596 95.7294 106.369 91.5215C125.107 88.9634 128.113 82.2997 128.343 81.8777C128.192 83.2018 128.291 84.5426 128.637 85.8298C128.95 87.3436 129.656 88.7482 130.684 89.9023C131.713 91.0564 133.027 91.9193 134.495 92.404C137.571 93.298 140.853 93.183 143.859 92.0759C146.865 90.9687 149.437 88.9277 151.199 86.2519C154.755 81.1358 155.586 73.0652 155.586 73.0652C157.899 74.8469 160.335 76.4625 162.876 77.8999C172.411 83.3525 183.278 86.0365 194.255 85.6502C205.232 85.2638 215.883 81.8223 225.011 75.7128C231.251 77.7089 237.76 78.7314 244.312 78.7441C249.985 78.8024 255.621 77.8182 260.939 75.8407Z" fill="#B8D5F3"/>
<path d="M136.95 64.8539C136.95 64.8539 154.856 81.4811 181.358 63.3574C181.358 63.3574 156.775 91.7773 136.95 64.8539Z" fill="#B8D5F3"/>
<path d="M214.254 62.7949C214.254 62.7949 220.802 82.4662 247.841 79.7547C247.841 79.7547 218.014 90.8694 214.254 62.7949Z" fill="#B8D5F3"/>
<path d="M102.634 91.8285C102.634 91.8285 122.906 96.1772 134.302 71.5049C134.315 71.5049 128.739 102.841 102.634 91.8285Z" fill="#B8D5F3"/>
<path d="M261.731 67.5019C258.89 62.5193 254.212 58.8465 248.698 57.2697C242.545 55.4535 230.241 60.7614 230.241 60.7614C232.286 56.586 233.761 52.1552 234.628 47.5876C235.511 41.4355 233.746 32.6486 224.959 30.8835C216.172 29.1185 209.15 38.8263 209.15 38.8263C207.871 35.6415 207.5 32.2905 204.763 30.0394C200.824 26.7779 194.633 24.5268 189.415 25.9465C184.516 27.2895 180.027 31.6637 176.625 35.309C178.492 30.1929 176.113 24.0024 173.619 19.5259C170.409 13.8086 165.497 8.61581 159.371 6.07056C149.944 2.14397 138.254 6.07055 131.488 13.2586C125.707 19.3979 124.633 27.6732 124.121 35.7438C124.044 37.0228 123.968 38.3786 123.904 39.696C121.269 36.1915 117.751 33.5439 111.599 34.4264C105.447 35.309 99.2952 41.461 99.2952 41.461C102.902 35.6799 96.8523 22.4548 93.4885 17.6329C88.6154 10.6878 80.9413 5.57175 72.2823 5.2392C60.1316 4.81713 45.1671 15.7272 46.574 29.1313C41.2224 27.0747 35.2984 27.0747 29.9468 29.1313C21.1599 32.6486 21.1599 46.705 21.1599 46.705C21.1599 46.705 13.2428 43.1877 7.09067 44.9528C2.53736 46.2318 0.695571 51.5525 0.145593 54.1745C-0.0655992 52.2367 0.206857 50.2768 0.938585 48.4701C1.67738 46.8585 2.72853 45.4095 4.03116 44.207C5.3338 43.0044 6.86205 42.0722 8.52742 41.4644C10.1928 40.8565 11.9622 40.585 13.7332 40.6657C15.5042 40.7464 17.2416 41.1775 18.8449 41.9343C18.9472 30.2568 32.4025 20.8432 43.402 24.7443C43.7346 9.39602 60.8095 -2.47329 75.9147 0.442878C91.02 3.35904 102.071 18.3492 102.953 33.7741C105.59 31.9812 108.736 31.0917 111.921 31.2393C115.106 31.3869 118.157 32.5636 120.616 34.5927C120.616 34.4264 120.616 34.2857 120.616 34.1195C120.514 33.2881 120.45 32.4695 120.425 31.651C120.425 31.4463 120.425 31.2545 120.425 31.0498C120.565 16.4178 132.55 2.42536 147.284 0.762633C163.144 -1.04078 179.183 11.8901 180.782 27.7755C189.172 18.5922 207.065 22.2246 211.197 33.9532C216.083 26.7779 227.977 26.9186 233.848 33.3009C239.719 39.6832 239.655 50.1456 235.127 57.5127C241.791 50.6956 254.747 52.8443 259.71 60.9917C260.831 62.9967 261.519 65.2144 261.731 67.5019Z" fill="white"/>
<path d="M154.665 41.3838C156.885 38.0753 159.899 35.3761 163.432 33.5328C166.964 31.6894 170.903 30.7609 174.886 30.8319C188.956 30.8319 193.343 41.3838 193.343 41.3838C193.343 41.3838 187.191 35.2317 174.886 35.2317C167.676 35.1674 160.618 37.3145 154.665 41.3838Z" fill="white"/>
</g>
</svg>
