<svg width="896" height="160" viewBox="0 0 896 160" fill="none" xmlns="http://www.w3.org/2000/svg">
<g clip-path="url(#clip0_600_16955)">
<path d="M773.319 151.006C773.106 151.007 772.897 150.944 772.72 150.824C772.544 150.704 772.408 150.533 772.331 150.333L730.303 35.8275C730.029 35.0776 729.94 34.2726 730.044 33.481C730.148 32.6894 730.441 31.9345 730.899 31.2805C731.357 30.6265 731.966 30.0928 732.675 29.7247C733.383 29.3565 734.17 29.1649 734.968 29.166H811.502C812.3 29.1649 813.087 29.3565 813.795 29.7247C814.504 30.0928 815.113 30.6265 815.571 31.2805C816.029 31.9345 816.322 32.6894 816.426 33.481C816.53 34.2726 816.441 35.0776 816.167 35.8275L774.139 150.333C774.074 150.508 773.964 150.662 773.82 150.781C773.676 150.899 773.503 150.977 773.319 151.006ZM735.052 31.2254C734.591 31.2216 734.135 31.3306 733.725 31.5431C733.314 31.7555 732.962 32.0648 732.699 32.4442C732.43 32.8201 732.259 33.2568 732.2 33.7153C732.141 34.1737 732.197 34.6395 732.363 35.071L773.319 146.908L814.276 35.113C814.432 34.6799 814.483 34.2158 814.425 33.759C814.366 33.3022 814.2 32.8659 813.939 32.4862C813.676 32.1068 813.324 31.7975 812.914 31.5851C812.504 31.3727 812.048 31.2636 811.586 31.2674L735.052 31.2254Z" fill="white"/>
<path d="M893.899 26.0146H2.10156V30.2175H893.899V26.0146Z" fill="#BDBDBD"/>
<path d="M893.898 30.2177H416.604C416.24 30.2176 415.881 30.1226 415.564 29.9421C415.248 29.7615 414.983 29.5017 414.797 29.188C414.613 28.8685 414.516 28.5061 414.516 28.1373C414.516 27.7684 414.613 27.406 414.797 27.0866L428.687 1.28121C428.869 0.949579 429.137 0.673039 429.462 0.480725C429.787 0.288411 430.159 0.187453 430.537 0.188484H879.966C880.344 0.187453 880.715 0.288411 881.04 0.480725C881.366 0.673039 881.633 0.949579 881.815 1.28121L895.747 27.1076C895.932 27.427 896.029 27.7894 896.029 28.1583C896.029 28.5271 895.932 28.8895 895.747 29.209C895.555 29.525 895.283 29.7846 894.958 29.9618C894.633 30.1389 894.268 30.2271 893.898 30.2177ZM420.114 26.0148H890.389L878.726 4.39131H431.777L420.114 26.0148Z" fill="#BDBDBD"/>
<path d="M201.987 30.2168H2.10047C1.73578 30.2168 1.37739 30.1218 1.06053 29.9413C0.743668 29.7607 0.479244 29.5008 0.293255 29.1871C0.108817 28.8677 0.0117188 28.5053 0.0117188 28.1364C0.0117187 27.7676 0.108817 27.4052 0.293255 27.0857L14.1626 1.2804C14.3457 0.945604 14.6166 0.667003 14.9461 0.474491C15.2756 0.281978 15.6512 0.182828 16.0328 0.187669H188.054C188.436 0.182828 188.812 0.281978 189.141 0.474491C189.471 0.667003 189.742 0.945604 189.925 1.2804L203.836 27.1067C204.02 27.4262 204.118 27.7886 204.118 28.1575C204.118 28.5263 204.02 28.8887 203.836 29.2082C203.644 29.5242 203.372 29.7838 203.047 29.9609C202.722 30.138 202.357 30.2263 201.987 30.2168ZM5.60983 26.014H198.477L186.815 4.39049H17.2727L5.60983 26.014Z" fill="#BDBDBD"/>
<path d="M33.7901 30.2169C33.444 30.2151 33.1037 30.1278 32.7994 29.9629C32.4951 29.7979 32.2363 29.5603 32.046 29.2713L14.8984 3.44491L18.3868 1.07031L33.7901 24.1858L49.1725 1.07031L52.6818 3.40288L35.5343 29.2713C35.3439 29.5603 35.0851 29.7979 34.7808 29.9629C34.4766 30.1278 34.1362 30.2151 33.7901 30.2169Z" fill="#BDBDBD"/>
<path d="M68.0636 30.2169C67.7174 30.2151 67.3771 30.1278 67.0729 29.9629C66.7686 29.7979 66.5098 29.5603 66.3194 29.2713L49.1719 3.44491L52.6812 1.07031L68.0636 24.1858L83.4669 1.07031L86.9553 3.40288L69.8288 29.2713C69.6364 29.5633 69.3743 29.8027 69.066 29.9679C68.7578 30.133 68.4132 30.2186 68.0636 30.2169Z" fill="#BDBDBD"/>
<path d="M102.358 30.2169C102.012 30.2151 101.672 30.1278 101.368 29.9629C101.063 29.7979 100.805 29.5603 100.614 29.2713L83.4668 3.44491L86.9551 1.07031L102.358 24.1858L117.678 1.07031L121.187 3.40288L104.103 29.2713C103.912 29.5603 103.653 29.7979 103.349 29.9629C103.045 30.1278 102.705 30.2151 102.358 30.2169Z" fill="#BDBDBD"/>
<path d="M136.591 30.2169C136.245 30.2151 135.905 30.1278 135.601 29.9629C135.296 29.7979 135.038 29.5603 134.847 29.2713L117.679 3.44491L121.251 1.07031L136.633 24.1858L152.037 1.07031L155.504 3.44491L138.399 29.2713C138.202 29.5694 137.934 29.8126 137.617 29.978C137.301 30.1435 136.948 30.2257 136.591 30.2169Z" fill="#BDBDBD"/>
<path d="M170.927 30.2169C170.577 30.2186 170.233 30.133 169.924 29.9679C169.616 29.8027 169.354 29.5633 169.162 29.2713L152.035 3.44491L155.502 1.07031L170.906 24.1858L186.288 1.07031L189.798 3.40288L172.671 29.2713C172.481 29.5603 172.222 29.7979 171.918 29.9629C171.613 30.1278 171.273 30.2151 170.927 30.2169Z" fill="#BDBDBD"/>
<path d="M447.6 30.2169C447.254 30.2151 446.914 30.1278 446.609 29.9629C446.305 29.7979 446.046 29.5603 445.856 29.2713L428.688 3.44491L432.197 1.07031L447.579 24.1858L462.962 1.07031L466.513 3.44491L449.365 29.2713C449.173 29.5633 448.911 29.8027 448.603 29.9679C448.294 30.133 447.95 30.2186 447.6 30.2169Z" fill="#BDBDBD"/>
<path d="M481.854 30.2169C481.508 30.2151 481.167 30.1278 480.863 29.9629C480.559 29.7979 480.3 29.5603 480.109 29.2713L462.962 3.44491L466.513 1.07031L481.896 24.1858L497.299 1.07031L500.787 3.40288L483.661 29.2292C483.47 29.5351 483.203 29.7867 482.886 29.9596C482.57 30.1326 482.214 30.2212 481.854 30.2169Z" fill="#BDBDBD"/>
<path d="M516.149 30.2169C515.802 30.2151 515.462 30.1278 515.158 29.9629C514.854 29.7979 514.595 29.5603 514.404 29.2713L497.257 3.44491L500.745 1.07031L516.149 24.1858L531.531 1.07031L535.04 3.40288L517.893 29.2292C517.707 29.5261 517.451 29.7719 517.146 29.9444C516.841 30.1169 516.498 30.2106 516.149 30.2169Z" fill="#BDBDBD"/>
<path d="M550.423 30.2169C550.077 30.2151 549.737 30.1278 549.432 29.9629C549.128 29.7979 548.869 29.5603 548.679 29.2713L531.531 3.44491L535.041 1.07031L550.423 24.1858L565.826 1.07031L569.315 3.40288L552.188 29.2292C552.001 29.5291 551.741 29.7768 551.432 29.9494C551.124 30.1221 550.776 30.2141 550.423 30.2169Z" fill="#BDBDBD"/>
<path d="M584.717 30.2169C584.371 30.2151 584.03 30.1278 583.726 29.9629C583.422 29.7979 583.163 29.5603 582.973 29.2713L565.825 3.44491L569.314 1.07031L584.717 24.1858L600.099 1.07031L603.609 3.40288L586.461 29.2292C586.276 29.5261 586.019 29.7719 585.714 29.9444C585.41 30.1169 585.067 30.2106 584.717 30.2169Z" fill="#BDBDBD"/>
<path d="M618.991 30.2169C618.645 30.2151 618.305 30.1278 618.001 29.9629C617.696 29.7979 617.438 29.5603 617.247 29.2713L600.1 3.44491L603.609 1.07031L618.991 24.1858L634.395 1.07031L637.883 3.40288L620.756 29.2713C620.564 29.5633 620.302 29.8027 619.994 29.9679C619.686 30.133 619.341 30.2186 618.991 30.2169Z" fill="#BDBDBD"/>
<path d="M653.286 30.2169C652.937 30.2186 652.592 30.133 652.284 29.9679C651.975 29.8027 651.713 29.5633 651.521 29.2713L634.395 3.44491L637.883 1.07031L653.286 24.1858L668.669 1.07031L672.178 3.40288L655.03 29.2292C654.845 29.5261 654.588 29.7719 654.284 29.9444C653.979 30.1169 653.636 30.2106 653.286 30.2169Z" fill="#BDBDBD"/>
<path d="M687.56 30.2169C687.214 30.2151 686.873 30.1278 686.569 29.9629C686.265 29.7979 686.006 29.5603 685.815 29.2713L668.668 3.44491L672.177 1.07031L687.56 24.1858L702.963 1.07031L706.451 3.40288L689.262 29.2713C689.075 29.5545 688.823 29.7885 688.527 29.9531C688.23 30.1178 687.899 30.2083 687.56 30.2169Z" fill="#BDBDBD"/>
<path d="M721.857 30.2169C721.507 30.2186 721.162 30.133 720.854 29.9679C720.546 29.8027 720.284 29.5633 720.091 29.2713L702.965 3.44491L706.453 1.07031L721.857 24.1858L737.239 1.07031L740.748 3.40288L723.601 29.2292C723.415 29.5261 723.159 29.7719 722.854 29.9444C722.549 30.1169 722.207 30.2106 721.857 30.2169Z" fill="#BDBDBD"/>
<path d="M756.13 30.2169C755.784 30.2151 755.444 30.1278 755.139 29.9629C754.835 29.7979 754.576 29.5603 754.386 29.2713L737.238 3.44491L740.748 1.07031L756.13 24.1858L771.533 1.07031L775.022 3.40288L757.874 29.2292C757.689 29.5261 757.432 29.7719 757.127 29.9444C756.823 30.1169 756.48 30.2106 756.13 30.2169Z" fill="#BDBDBD"/>
<path d="M790.425 30.2169C790.075 30.2186 789.731 30.133 789.422 29.9679C789.114 29.8027 788.852 29.5633 788.66 29.2713L771.533 3.44491L775.022 1.07031L790.425 24.1858L805.807 1.07031L809.317 3.40288L792.232 29.2713C792.036 29.5694 791.767 29.8126 791.451 29.978C791.135 30.1435 790.782 30.2257 790.425 30.2169Z" fill="#BDBDBD"/>
<path d="M824.698 30.2169C824.352 30.2151 824.012 30.1278 823.708 29.9629C823.403 29.7979 823.145 29.5603 822.954 29.2713L805.807 3.44491L809.316 1.07031L824.698 24.1858L840.102 1.07031L843.59 3.40288L826.443 29.2292C826.257 29.5261 826 29.7719 825.696 29.9444C825.391 30.1169 825.048 30.2106 824.698 30.2169Z" fill="#BDBDBD"/>
<path d="M858.993 30.2169C858.644 30.2186 858.299 30.133 857.991 29.9679C857.683 29.8027 857.42 29.5633 857.228 29.2713L840.102 3.44491L843.59 1.07031L858.993 24.1858L874.376 1.07031L877.885 3.40288L860.737 29.2713C860.547 29.5603 860.288 29.7979 859.984 29.9629C859.68 30.1278 859.339 30.2151 858.993 30.2169Z" fill="#BDBDBD"/>
<path d="M807.193 20.7192H739.359C738.244 20.7192 737.175 21.162 736.387 21.9502C735.599 22.7384 735.156 23.8074 735.156 24.922V30.5538C735.156 31.3452 735.471 32.1042 736.03 32.6638C736.59 33.2234 737.349 33.5378 738.14 33.5378H808.559C808.952 33.5406 809.342 33.4655 809.707 33.3168C810.071 33.168 810.403 32.9487 810.682 32.6713C810.961 32.3939 811.183 32.064 811.334 31.7006C811.486 31.3372 811.564 30.9475 811.564 30.5538V25.0061C811.576 24.4327 811.47 23.8629 811.253 23.3319C811.037 22.8008 810.714 22.3197 810.305 21.9181C809.895 21.5165 809.408 21.203 808.873 20.9968C808.337 20.7906 807.766 20.6962 807.193 20.7192Z" fill="white"/>
<path d="M807.194 20.7188H771.995C773.11 20.7188 774.179 21.1616 774.967 21.9497C775.755 22.7379 776.198 23.8069 776.198 24.9216V33.5374H808.392C808.785 33.5401 809.175 33.465 809.54 33.3163C809.904 33.1676 810.236 32.9482 810.515 32.6708C810.795 32.3935 811.016 32.0636 811.167 31.7002C811.319 31.3368 811.397 30.947 811.397 30.5534V25.0056C811.408 24.4467 811.307 23.8911 811.101 23.3715C810.895 22.8518 810.587 22.3785 810.196 21.9793C809.804 21.5801 809.337 21.263 808.822 21.0465C808.306 20.8301 807.753 20.7186 807.194 20.7188Z" fill="white"/>
<path d="M778.72 141.739L784.184 148.212L778.72 160.61H767.835L762.371 148.212L767.835 141.739H778.72Z" fill="white"/>
<path d="M773.277 153.276C775.111 153.276 776.598 151.79 776.598 149.956C776.598 148.122 775.111 146.636 773.277 146.636C771.444 146.636 769.957 148.122 769.957 149.956C769.957 151.79 771.444 153.276 773.277 153.276Z" fill="#831F82"/>
</g>
<defs>
<clipPath id="clip0_600_16955">
<rect width="896" height="160" fill="white"/>
</clipPath>
</defs>
</svg>
