<svg width="300" height="120" viewBox="0 0 300 120" fill="none" xmlns="http://www.w3.org/2000/svg">
<g clip-path="url(#clip0_401_26901)">
<path d="M0 0V120H73.0531H121.997V15H275V120H299.947V0H0Z" fill="url(#paint0_linear_401_26901)"/>
<path d="M127 116V15H122V120H122.07L127 116Z" fill="url(#paint1_linear_401_26901)"/>
<path d="M275 15H270V116L274.743 120H275V15Z" fill="url(#paint2_linear_401_26901)"/>
<path d="M270 15H127V29H270V15Z" fill="url(#paint3_linear_401_26901)"/>
<path style="mix-blend-mode:multiply" opacity="0.5" d="M270 15H127V21H270V15Z" fill="url(#paint4_linear_401_26901)"/>
<path d="M270 29H127V116H270V29Z" fill="url(#paint5_linear_401_26901)"/>
<path style="mix-blend-mode:multiply" opacity="0.2" d="M270 29H127V116H270V29Z" fill="url(#paint6_linear_401_26901)"/>
<path opacity="0.6" d="M122 20H0V21H122V20Z" fill="white"/>
<path opacity="0.6" d="M300 20H275V21H300V20Z" fill="white"/>
<path opacity="0.6" d="M122 41H0V42H122V41Z" fill="white"/>
<path opacity="0.6" d="M300 41H275V42H300V41Z" fill="white"/>
<path opacity="0.6" d="M122 62H0V63H122V62Z" fill="white"/>
<path opacity="0.6" d="M300 62H275V63H300V62Z" fill="white"/>
<path opacity="0.6" d="M122 83H0V84H122V83Z" fill="white"/>
<path opacity="0.6" d="M300 83H275V84H300V83Z" fill="white"/>
<g opacity="0.2">
<path opacity="0.6" d="M270 15L275 19.9663V21L270 16.0337V15Z" fill="white"/>
<path opacity="0.6" d="M270 36L275 40.9663V42L270 37.0337V36Z" fill="white"/>
<path opacity="0.6" d="M270 57L275 61.9663V63L270 58.0337V57Z" fill="white"/>
<path opacity="0.6" d="M270 78L275 82.9663V84L270 79.0337V78Z" fill="white"/>
</g>
<g opacity="0.2">
<path opacity="0.6" d="M127 78L122 82.9663V84L127 79.0337V78Z" fill="white"/>
<path opacity="0.6" d="M127 57L122 61.9663V63L127 58.0337V57Z" fill="white"/>
<path opacity="0.6" d="M127 15L122 19.9663V21L127 16.0337V15Z" fill="white"/>
<path opacity="0.6" d="M127 36L122 40.9663V42L127 37.0337V36Z" fill="white"/>
</g>
<g clip-path="url(#clip1_401_26901)">
<path d="M109.216 15H14V120.004H109.216V15Z" fill="#4D4D4D"/>
<path d="M104.615 19.5828H18.7432V38.5903H104.615V19.5828Z" fill="#0B2033"/>
<path d="M103.725 20.4727H19.6328V37.7005H103.725V20.4727Z" fill="#E2FAFC"/>
<path d="M58.3959 45.7004H23.522V115.982H58.3959V45.7004Z" fill="#0B2033"/>
<path d="M57.5058 46.5903H24.4116V115.092H57.5058V46.5903Z" fill="#E2FAFC"/>
<path d="M99.6943 45.8516H64.856V116.133H99.6943V45.8516Z" fill="#0B2033"/>
<path d="M98.8042 46.7415H65.7456V115.243H98.8042V46.7415Z" fill="#E2FAFC"/>
<path opacity="0.6" d="M40.0108 37.7094H19.6328V20.4727H57.2386L40.0108 37.7094ZM103.725 32.7172V29.0243L95.0491 37.7094H98.7421L103.725 32.7172ZM92.8333 20.4727H76.6822L59.4544 37.7094H75.6055L92.8333 20.4727ZM57.5056 55.8004V46.5903H50.5646L24.4114 72.7435V88.859L57.5056 55.8004ZM57.5056 78.937V75.244L24.4114 108.338V111.996L57.5056 78.937ZM40.7939 115.092H57.5056V98.3806L40.7939 115.092ZM31.121 46.5725H24.4114V53.2643L31.121 46.5725ZM89.7099 46.7238H86.0081L65.7458 67.0038V70.6968L89.7099 46.7238ZM98.8044 75.3063V57.0818L65.7458 90.1404V108.365C76.7742 97.3483 87.7937 86.3288 98.8044 75.3063Z" fill="white"/>
<path d="M109.216 40.8684H14.0444V41.34H109.216V40.8684Z" fill="#0B2033"/>
<path d="M61.8657 41.1089H61.394V120.04H61.8657V41.1089Z" fill="#0B2033"/>
<path d="M19.2861 41.1089H18.8145V120.04H19.2861V41.1089Z" fill="#0B2033"/>
<path d="M104.758 41.1089H104.286V120.04H104.758V41.1089Z" fill="#0B2033"/>
<path d="M58.9825 86.7589C58.9813 86.8197 58.9921 86.8801 59.0143 86.9367C59.0365 86.9933 59.0696 87.045 59.1117 87.0888C59.1539 87.1326 59.2042 87.1676 59.2599 87.192C59.3156 87.2163 59.3756 87.2294 59.4363 87.2306H60.3262C60.4497 87.2282 60.5674 87.1775 60.654 87.0893C60.7405 87.0011 60.789 86.8825 60.7889 86.7589V81.927C60.789 81.8034 60.7405 81.6848 60.654 81.5966C60.5674 81.5084 60.4497 81.4577 60.3262 81.4553H59.4363C59.3756 81.4565 59.3156 81.4696 59.2599 81.4939C59.2042 81.5183 59.1539 81.5533 59.1117 81.5971C59.0696 81.6409 59.0365 81.6926 59.0143 81.7492C58.9921 81.8058 58.9813 81.8662 58.9825 81.927V86.7589Z" fill="#D1BD56"/>
<path d="M60.0778 82.4521H53.9377C53.6231 82.4521 53.3682 82.7071 53.3682 83.0217V83.5912C53.3682 83.9057 53.6231 84.1607 53.9377 84.1607H60.0778C60.3923 84.1607 60.6473 83.9057 60.6473 83.5912V83.0217C60.6473 82.7071 60.3923 82.4521 60.0778 82.4521Z" fill="#EFE297"/>
<path d="M60.0684 83.7158H53.9373C53.7862 83.7158 53.6414 83.6558 53.5346 83.5489C53.4277 83.4421 53.3677 83.2973 53.3677 83.1462V83.5912C53.3666 83.6667 53.3804 83.7417 53.4085 83.8118C53.4366 83.882 53.4784 83.9458 53.5314 83.9996C53.5844 84.0535 53.6476 84.0962 53.7172 84.1254C53.7869 84.1546 53.8617 84.1696 53.9373 84.1696H60.0684C60.2219 84.1696 60.369 84.1086 60.4774 84.0002C60.5859 83.8917 60.6469 83.7446 60.6469 83.5912V83.1462C60.6445 83.2981 60.5826 83.4429 60.4743 83.5495C60.3661 83.6561 60.2203 83.7158 60.0684 83.7158Z" fill="#D1BD56"/>
<path d="M60.1219 84.1962H59.0273V84.6412H60.1219C60.2738 84.6412 60.4195 84.5815 60.5278 84.4749C60.636 84.3683 60.698 84.2235 60.7003 84.0716V83.6267C60.698 83.7786 60.636 83.9234 60.5278 84.03C60.4195 84.1365 60.2738 84.1962 60.1219 84.1962Z" fill="#B79C29"/>
<path d="M64.5 86.7589C64.5012 86.8204 64.4901 86.8816 64.4674 86.9388C64.4446 86.9959 64.4107 87.048 64.3676 87.0919C64.3246 87.1358 64.2731 87.1707 64.2164 87.1945C64.1597 87.2183 64.0988 87.2306 64.0373 87.2306H63.1474C63.0859 87.2306 63.025 87.2183 62.9682 87.1945C62.9115 87.1707 62.8601 87.1358 62.817 87.0919C62.7739 87.048 62.74 86.9959 62.7173 86.9388C62.6946 86.8816 62.6835 86.8204 62.6847 86.7589V81.927C62.6835 81.8654 62.6946 81.8043 62.7173 81.7471C62.74 81.69 62.7739 81.6379 62.817 81.594C62.8601 81.5501 62.9115 81.5152 62.9682 81.4914C63.025 81.4676 63.0859 81.4553 63.1474 81.4553H64.0373C64.0988 81.4553 64.1597 81.4676 64.2164 81.4914C64.2731 81.5152 64.3246 81.5501 64.3676 81.594C64.4107 81.6379 64.4446 81.69 64.4674 81.7471C64.4901 81.8043 64.5012 81.8654 64.5 81.927V86.7589Z" fill="#D1BD56"/>
<path d="M69.5455 82.4521H63.4055C63.0909 82.4521 62.8359 82.7071 62.8359 83.0217V83.5912C62.8359 83.9057 63.0909 84.1607 63.4055 84.1607H69.5455C69.8601 84.1607 70.1151 83.9057 70.1151 83.5912V83.0217C70.1151 82.7071 69.8601 82.4521 69.5455 82.4521Z" fill="#EFE297"/>
<path d="M63.4055 83.7158H69.5455C69.6966 83.7158 69.8414 83.6558 69.9482 83.5489C70.0551 83.4421 70.1151 83.2973 70.1151 83.1462V83.5912C70.1151 83.743 70.0554 83.8888 69.9488 83.9971C69.8422 84.1053 69.6974 84.1673 69.5455 84.1696H63.4055C63.2536 84.1673 63.1087 84.1053 63.0022 83.9971C62.8956 83.8888 62.8359 83.743 62.8359 83.5912V83.1462C62.8359 83.2973 62.8959 83.4421 63.0027 83.5489C63.1095 83.6558 63.2544 83.7158 63.4055 83.7158Z" fill="#D1BD56"/>
<path d="M63.3517 84.1962H64.4463V84.6412H63.3517C63.2007 84.6412 63.0558 84.5812 62.949 84.4743C62.8422 84.3675 62.7822 84.2227 62.7822 84.0716V83.6267C62.7822 83.7778 62.8422 83.9226 62.949 84.0294C63.0558 84.1362 63.2007 84.1962 63.3517 84.1962Z" fill="#B79C29"/>
<path d="M19.339 55.2397C19.339 55.2987 19.3155 55.3553 19.2738 55.397C19.2321 55.4387 19.1755 55.4622 19.1165 55.4622C19.0575 55.4622 19.0009 55.4387 18.9592 55.397C18.9175 55.3553 18.894 55.2987 18.894 55.2397V46.7859C18.894 46.7269 18.9175 46.6704 18.9592 46.6286C19.0009 46.5869 19.0575 46.5635 19.1165 46.5635C19.1755 46.5635 19.2321 46.5869 19.2738 46.6286C19.3155 46.6704 19.339 46.7269 19.339 46.7859V55.2397Z" fill="#B79C29"/>
<path d="M19.3395 84.1872C19.3402 84.2206 19.3334 84.2537 19.3195 84.284C19.3057 84.3144 19.2852 84.3412 19.2595 84.3626C19.2339 84.384 19.2038 84.3993 19.1714 84.4074C19.139 84.4156 19.1053 84.4163 19.0726 84.4097C19.0136 84.4097 18.957 84.3862 18.9153 84.3445C18.8735 84.3028 18.8501 84.2462 18.8501 84.1872V75.7335C18.8501 75.6745 18.8735 75.6179 18.9153 75.5761C18.957 75.5344 19.0136 75.511 19.0726 75.511C19.1316 75.511 19.1882 75.5344 19.2299 75.5761C19.2716 75.6179 19.295 75.6745 19.295 75.7335L19.3395 84.1872Z" fill="#B79C29"/>
<path d="M19.339 113.135C19.339 113.194 19.3155 113.25 19.2738 113.292C19.2321 113.334 19.1755 113.357 19.1165 113.357C19.0575 113.357 19.0009 113.334 18.9592 113.292C18.9175 113.25 18.894 113.194 18.894 113.135V104.681C18.894 104.622 18.9175 104.565 18.9592 104.524C19.0009 104.482 19.0575 104.458 19.1165 104.458C19.1755 104.458 19.2321 104.482 19.2738 104.524C19.3155 104.565 19.339 104.622 19.339 104.681V113.135Z" fill="#B79C29"/>
<path d="M104.873 55.2397C104.873 55.2972 104.851 55.3525 104.811 55.3939C104.771 55.4354 104.717 55.4599 104.66 55.4622C104.6 55.4622 104.542 55.439 104.499 55.3976C104.456 55.3561 104.431 55.2995 104.428 55.2397V46.7859C104.431 46.7261 104.456 46.6695 104.499 46.6281C104.542 46.5866 104.6 46.5634 104.66 46.5635C104.717 46.5658 104.771 46.5902 104.811 46.6317C104.851 46.6732 104.873 46.7285 104.873 46.7859V55.2397Z" fill="#B79C29"/>
<path d="M104.873 84.1872C104.873 84.2447 104.851 84.3 104.811 84.3414C104.771 84.3829 104.717 84.4074 104.66 84.4097C104.6 84.4097 104.542 84.3866 104.499 84.3451C104.456 84.3036 104.431 84.247 104.428 84.1872V75.7335C104.431 75.6736 104.456 75.6171 104.499 75.5756C104.542 75.5341 104.6 75.5109 104.66 75.511C104.717 75.5133 104.771 75.5377 104.811 75.5792C104.851 75.6207 104.873 75.676 104.873 75.7335V84.1872Z" fill="#B79C29"/>
<path d="M104.873 113.135C104.873 113.192 104.851 113.247 104.811 113.289C104.771 113.33 104.717 113.355 104.66 113.357C104.6 113.357 104.542 113.334 104.499 113.293C104.456 113.251 104.431 113.195 104.428 113.135V104.681C104.431 104.621 104.456 104.565 104.499 104.523C104.542 104.482 104.6 104.458 104.66 104.458C104.717 104.461 104.771 104.485 104.811 104.527C104.851 104.568 104.873 104.623 104.873 104.681V113.135Z" fill="#B79C29"/>
</g>
</g>
<defs>
<linearGradient id="paint0_linear_401_26901" x1="149.974" y1="-0.326975" x2="149.974" y2="120.327" gradientUnits="userSpaceOnUse">
<stop stop-color="#28292B"/>
<stop offset="0.02" stop-color="#28292B"/>
<stop offset="0.08" stop-color="#2D2D2F"/>
<stop offset="0.12" stop-color="#2D2D2F"/>
<stop offset="0.78" stop-color="#2D2D2F"/>
<stop offset="0.86" stop-color="#28292B"/>
<stop offset="1" stop-color="#28292B"/>
</linearGradient>
<linearGradient id="paint1_linear_401_26901" x1="120.235" y1="67.5" x2="129.068" y2="67.5" gradientUnits="userSpaceOnUse">
<stop stop-color="#2A2A2C"/>
<stop offset="0.09" stop-color="#2A2A2C"/>
<stop offset="0.41" stop-color="#2A2A2C"/>
<stop offset="0.72" stop-color="#1E1F21"/>
<stop offset="1" stop-color="#1E1F21"/>
</linearGradient>
<linearGradient id="paint2_linear_401_26901" x1="268.235" y1="67.5" x2="277.068" y2="67.5" gradientUnits="userSpaceOnUse">
<stop stop-color="#28292B"/>
<stop offset="0.28" stop-color="#1E1F21"/>
<stop offset="0.59" stop-color="#2A2A2C"/>
<stop offset="0.91" stop-color="#2A2A2C"/>
<stop offset="1" stop-color="#2A2A2C"/>
</linearGradient>
<linearGradient id="paint3_linear_401_26901" x1="198.5" y1="38.4814" x2="198.5" y2="8.19866" gradientUnits="userSpaceOnUse">
<stop stop-color="#2D2D2F"/>
<stop offset="0.23" stop-color="#2D2D2F"/>
<stop offset="0.63" stop-color="#28292B"/>
<stop offset="1" stop-color="#28292B"/>
</linearGradient>
<linearGradient id="paint4_linear_401_26901" x1="198.5" y1="30.9293" x2="198.5" y2="-0.766304" gradientUnits="userSpaceOnUse">
<stop offset="0.01" stop-color="#A6A8AB"/>
<stop offset="0.03" stop-color="#A0A2A5"/>
<stop offset="0.23" stop-color="#5D5E61"/>
<stop offset="0.4" stop-color="#2C2C30"/>
<stop offset="0.53" stop-color="#0E0D11"/>
<stop offset="0.6" stop-color="#030206"/>
</linearGradient>
<linearGradient id="paint5_linear_401_26901" x1="198.5" y1="30.3114" x2="198.5" y2="153.406" gradientUnits="userSpaceOnUse">
<stop stop-color="#1E1F21"/>
<stop offset="0.33" stop-color="#2D2D2F"/>
<stop offset="0.58" stop-color="#2D2D2F"/>
<stop offset="0.8" stop-color="#2D2D2F"/>
<stop offset="1" stop-color="#2D2D2F"/>
</linearGradient>
<linearGradient id="paint6_linear_401_26901" x1="198.5" y1="30.3114" x2="198.5" y2="153.406" gradientUnits="userSpaceOnUse">
<stop offset="0.4" stop-color="#030206"/>
<stop offset="0.47" stop-color="#0E0D11"/>
<stop offset="0.6" stop-color="#2C2C30"/>
<stop offset="0.77" stop-color="#5D5E61"/>
<stop offset="0.97" stop-color="#A0A2A5"/>
<stop offset="0.99" stop-color="#A6A8AB"/>
</linearGradient>
<clipPath id="clip0_401_26901">
<rect width="300" height="120" fill="white"/>
</clipPath>
<clipPath id="clip1_401_26901">
<rect width="95.2159" height="105.04" fill="white" transform="translate(14 15)"/>
</clipPath>
</defs>
</svg>
