<svg width="815" height="50" viewBox="0 0 815 50" fill="none" xmlns="http://www.w3.org/2000/svg">
<rect y="1" width="817" height="89" fill="#4D4D4D"/>
<g opacity="0.4">
<path d="M26 31H-5L-12 34H20L26 31Z" fill="white"/>
<path d="M88 31H57L50 34H82L88 31Z" fill="white"/>
<path d="M150 31H119L112 34H144L150 31Z" fill="white"/>
<path d="M212 31H181L174 34H206L212 31Z" fill="white"/>
<path d="M274 31H243L236 34H268L274 31Z" fill="white"/>
<path d="M336 31H305L298 34H330L336 31Z" fill="white"/>
<path d="M398 31H367L360 34H392L398 31Z" fill="white"/>
<path d="M460 31H429L422 34H454L460 31Z" fill="white"/>
<path d="M522 31H491L484 34H516L522 31Z" fill="white"/>
<path d="M584 31H553L546 34H578L584 31Z" fill="white"/>
<path d="M646 31H615L608 34H640L646 31Z" fill="white"/>
<path d="M708 31H677L670 34H702L708 31Z" fill="white"/>
<path d="M770 31H739L732 34H764L770 31Z" fill="white"/>
<path d="M832 31H801L794 34H826L832 31Z" fill="white"/>
</g>
<rect width="815" height="1" fill="#D9D9D9"/>
</svg>
