<svg width="65" height="65" viewBox="0 0 65 65" fill="none" xmlns="http://www.w3.org/2000/svg">
<path d="M6.54331 23.8618H14.395L14.395 59.6726C14.395 59.7149 14.3905 59.7717 14.395 59.8127C14.403 59.8894 14.4059 59.9589 14.43 60.0336C14.454 60.1079 14.488 60.1734 14.5262 60.2402C14.5466 60.2763 14.5837 60.3 14.6084 60.3344C14.624 60.356 14.6473 60.3934 14.6641 60.4136C14.7417 60.5075 14.824 60.7499 14.9278 60.8148C14.9668 60.8391 15.0164 60.863 15.0578 60.8821C15.2034 60.9503 15.3619 60.9946 15.5333 60.9946H29.1692C29.7944 60.9946 30.2952 60.2979 30.2952 59.6726V23.8156H48.7842V28.3147H44.8223C44.197 28.3147 43.3228 28.8217 43.3228 29.4469V34.9417C43.3228 35.5669 43.8652 36.4537 44.8223 36.4537H48.787V36.8279C48.787 38.0629 49.7479 39.46 50.8563 39.8553C51.7066 40.1588 52.0184 40.8993 52.0184 41.5716C52.0184 42.7138 51.1546 43.1892 50.3643 43.1892C49.1824 43.1892 48.5675 42.1363 48.5266 41.2725C48.4857 40.4087 47.7141 39.9593 47.0888 39.9593C46.4636 39.9593 45.5837 40.5169 45.5649 41.525C45.5104 44.4456 47.9341 46.2695 50.3643 46.2695C52.7536 46.2695 55.0598 43.9615 55.0598 41.5716C55.0592 39.7131 54.0333 37.8563 52.2836 37.2316C52.0807 37.1592 51.8752 37.0988 51.8752 36.8279V36.4537H56.0025C56.6277 36.4537 57.4196 35.9468 57.4196 35.3215V29.7407C57.4196 29.1155 56.6277 28.3147 56.0025 28.3147H51.8464V23.8624H58.2669C58.8921 23.8624 59.6695 23.3555 59.6695 22.7302V15.6593C59.6695 15.6352 59.6572 15.6151 59.6558 15.5915C59.6509 15.512 59.6308 15.4393 59.6098 15.3637C59.591 15.2958 59.576 15.229 59.5455 15.1668C59.5137 15.1017 59.4697 15.0475 59.426 14.9895C59.3819 14.9311 59.3414 14.8734 59.2871 14.8245C59.2361 14.7786 59.1766 14.7463 59.1169 14.7098C59.0495 14.6684 58.9845 14.6288 58.9086 14.6021C58.8865 14.5943 58.8708 14.5773 58.848 14.5708L22.5108 4.13266C22.5078 4.13176 22.5046 4.13294 22.5016 4.13211C22.4043 4.10516 22.3036 4.08899 22.2001 4.08899C22.1564 4.08899 22.1149 4.10039 22.0721 4.10537C22.0447 4.10848 22.0191 4.11048 21.9921 4.11559C21.8519 4.14199 21.7309 4.21072 21.6115 4.28577C21.6025 4.29143 21.5913 4.29122 21.5824 4.2971L5.91531 14.7173C5.884 14.7382 5.86756 14.7706 5.83902 14.7939C5.77834 14.8433 5.72603 14.8959 5.67669 14.9567C5.63116 15.013 5.59191 15.0692 5.55846 15.1321C5.52453 15.195 5.49958 15.2588 5.47802 15.3281C5.45487 15.4026 5.44002 15.4751 5.43262 15.5528C5.42903 15.5896 5.41113 15.6215 5.41113 15.6593V22.7296C5.41113 23.3548 5.91807 23.8618 6.54331 23.8618ZM54.3836 33.4415H46.3343V31.3478H54.3836V33.4415ZM29.5617 14.398L25.653 8.14342L46.968 14.3197L29.5617 14.398ZM25.9632 14.3233L18.542 14.398L22.2579 8.49308L25.9632 14.3233ZM14.9837 14.398H11.9604L17.143 10.9795L14.9837 14.398ZM27.2369 47.0913L18.4258 40.881L27.2369 34.512V47.0913ZM17.3541 43.716L26.0954 50.103L17.3541 56.5122V43.716ZM17.4652 37.8592L17.3541 25.2603L26.0915 31.5925L17.4652 37.8592ZM20.4115 57.9101L27.2369 53.1362V57.9101H20.4115ZM27.2369 28.6636L20.6593 23.8618H27.2369L27.2369 28.6636ZM56.5552 20.7377H28.5511H15.5272H8.49556V17.465H15.5272H28.5511H56.5552V20.7377Z" fill="#29303E"/>
</svg>
